<?xml version="1.0" encoding="UTF-8" standalone="no"?>
<!-- Created with Inkscape (http://www.inkscape.org/) -->

<svg
   version="1.1"
   id="svg1"
   width="793.70074"
   height="1122.5197"
   viewBox="0 0 793.70074 1122.5197"
   sodipodi:docname="SupplementaryFigure5.pdf"
   inkscape:version="1.3.2 (091e20e, 2023-11-25, custom)"
   xmlns:inkscape="http://www.inkscape.org/namespaces/inkscape"
   xmlns:sodipodi="http://sodipodi.sourceforge.net/DTD/sodipodi-0.dtd"
   xmlns="http://www.w3.org/2000/svg"
   xmlns:svg="http://www.w3.org/2000/svg">
  <defs
     id="defs1">
    <clipPath
       clipPathUnits="userSpaceOnUse"
       id="clipPath3">
      <path
         d="m 111.325,543.062 h 412.789 v 0.508 H 111.325 Z"
         transform="translate(-111.32421,-543.37011)"
         id="path3" />
    </clipPath>
    <clipPath
       clipPathUnits="userSpaceOnUse"
       id="clipPath5">
      <path
         d="m 111.325,605.316 h 412.789 v 1.012 H 111.325 Z"
         transform="translate(-111.32421,-605.90142)"
         id="path5" />
    </clipPath>
    <clipPath
       clipPathUnits="userSpaceOnUse"
       id="clipPath7">
      <path
         d="m 111.325,668.076 h 412.789 v 0.504 H 111.325 Z"
         transform="translate(-111.32421,-668.43652)"
         id="path7" />
    </clipPath>
    <clipPath
       clipPathUnits="userSpaceOnUse"
       id="clipPath9">
      <path
         d="m 111.325,730.33 h 412.789 v 1.013 H 111.325 Z"
         transform="translate(-111.32421,-730.96782)"
         id="path9" />
    </clipPath>
    <clipPath
       clipPathUnits="userSpaceOnUse"
       id="clipPath11">
      <path
         d="m 111.325,511.682 h 412.789 v 1.012 H 111.325 Z"
         transform="translate(-111.32421,-512.10452)"
         id="path11" />
    </clipPath>
    <clipPath
       clipPathUnits="userSpaceOnUse"
       id="clipPath13">
      <path
         d="m 111.325,573.936 h 412.789 v 1.013 H 111.325 Z"
         transform="translate(-111.32421,-574.63622)"
         id="path13" />
    </clipPath>
    <clipPath
       clipPathUnits="userSpaceOnUse"
       id="clipPath15">
      <path
         d="m 111.325,636.694 h 412.789 v 1.012 H 111.325 Z"
         transform="translate(-111.32421,-637.17141)"
         id="path15" />
    </clipPath>
    <clipPath
       clipPathUnits="userSpaceOnUse"
       id="clipPath17">
      <path
         d="m 111.325,698.948 h 412.789 v 1.52 H 111.325 Z"
         transform="translate(-111.32421,-699.70212)"
         id="path17" />
    </clipPath>
    <clipPath
       clipPathUnits="userSpaceOnUse"
       id="clipPath19">
      <path
         d="m 111.325,761.71 h 412.789 v 1.013 H 111.325 Z"
         transform="translate(-111.32421,-762.23392)"
         id="path19" />
    </clipPath>
    <clipPath
       clipPathUnits="userSpaceOnUse"
       id="clipPath21">
      <path
         d="m 188.398,499.359 h 1.148 v 280.449 h -1.148 z"
         transform="translate(-188.7187,-499.35842)"
         id="path21" />
    </clipPath>
    <clipPath
       clipPathUnits="userSpaceOnUse"
       id="clipPath23">
      <path
         d="m 317.14,499.359 h 1.153 v 280.449 h -1.153 z"
         transform="translate(-317.71871,-499.35842)"
         id="path23" />
    </clipPath>
    <clipPath
       clipPathUnits="userSpaceOnUse"
       id="clipPath25">
      <path
         d="m 445.887,499.359 h 1.148 v 280.449 h -1.148 z"
         transform="translate(-446.71481,-499.35842)"
         id="path25" />
    </clipPath>
    <clipPath
       clipPathUnits="userSpaceOnUse"
       id="clipPath96">
      <path
         d="m 111.828,169.265 v -1.18 l 418.729,5 v 1.179 z"
         transform="translate(-111.8281,-168.68261)"
         id="path96" />
    </clipPath>
    <clipPath
       clipPathUnits="userSpaceOnUse"
       id="clipPath98">
      <path
         d="m 111.828,249.394 v -0.59 l 418.729,5 v 0.589 z"
         transform="translate(-111.8281,-249.0146)"
         id="path98" />
    </clipPath>
    <clipPath
       clipPathUnits="userSpaceOnUse"
       id="clipPath100">
      <path
         d="m 111.828,329.519 v -0.586 l 418.729,4.999 v 0.586 z"
         transform="translate(-111.8281,-329.35451)"
         id="path100" />
    </clipPath>
    <clipPath
       clipPathUnits="userSpaceOnUse"
       id="clipPath102">
      <path
         d="m 111.828,410.237 v -1.18 l 418.729,5.001 v 1.179 z"
         transform="translate(-111.8281,-409.69041)"
         id="path102" />
    </clipPath>
    <clipPath
       clipPathUnits="userSpaceOnUse"
       id="clipPath104">
      <path
         d="m 111.828,129.199 v -1.177 l 418.729,5.001 v 1.176 z"
         transform="translate(-111.8281,-128.51461)"
         id="path104" />
    </clipPath>
    <clipPath
       clipPathUnits="userSpaceOnUse"
       id="clipPath106">
      <path
         d="m 111.828,209.328 v -1.181 l 418.729,5.001 v 1.18 z"
         transform="translate(-111.8281,-208.8506)"
         id="path106" />
    </clipPath>
    <clipPath
       clipPathUnits="userSpaceOnUse"
       id="clipPath108">
      <path
         d="m 111.828,290.046 v -1.18 l 418.729,5 v 1.18 z"
         transform="translate(-111.8281,-289.18261)"
         id="path108" />
    </clipPath>
    <clipPath
       clipPathUnits="userSpaceOnUse"
       id="clipPath110">
      <path
         d="m 111.828,370.174 v -1.179 l 418.729,5 v 1.18 z"
         transform="translate(-111.8281,-369.52251)"
         id="path110" />
    </clipPath>
    <clipPath
       clipPathUnits="userSpaceOnUse"
       id="clipPath112">
      <path
         d="m 224.543,113.674 h 1.18 v 326.465 h -1.18 z"
         transform="translate(-225.27001,-113.67481)"
         id="path112" />
    </clipPath>
    <clipPath
       clipPathUnits="userSpaceOnUse"
       id="clipPath114">
      <path
         d="m 414.848,113.674 h 1.181 v 326.465 h -1.181 z"
         transform="translate(-415.59771,-113.67481)"
         id="path114" />
    </clipPath>
  </defs>
  <sodipodi:namedview
     id="namedview1"
     pagecolor="#ffffff"
     bordercolor="#666666"
     borderopacity="1.0"
     inkscape:showpageshadow="2"
     inkscape:pageopacity="0.0"
     inkscape:pagecheckerboard="0"
     inkscape:deskcolor="#d1d1d1"
     inkscape:zoom="1.0343421"
     inkscape:cx="315.65957"
     inkscape:cy="626.00176"
     inkscape:window-width="1920"
     inkscape:window-height="1017"
     inkscape:window-x="1912"
     inkscape:window-y="-8"
     inkscape:window-maximized="1"
     inkscape:current-layer="layer-MC0">
    <inkscape:page
       x="0"
       y="0"
       inkscape:label="1"
       id="page1"
       width="793.70074"
       height="1122.5197"
       margin="0 0 0 35.9492"
       bleed="0" />
  </sodipodi:namedview>
  <g
     id="layer-MC0"
     inkscape:groupmode="layer"
     inkscape:label="Layer 1">
    <path
       id="path1"
       d="M 111.325,511.105 H 524.114 V 778.808 H 111.325 Z"
       style="fill:#e2f0ff;fill-opacity:1;fill-rule:nonzero;stroke:none"
       transform="matrix(1.3333333,0,0,-1.3333333,0,1122.5197)" />
    <path
       id="path2"
       d="M 0,0 H 412.789"
       style="fill:none;stroke:#ffffff;stroke-width:0.288;stroke-linecap:butt;stroke-linejoin:round;stroke-miterlimit:10;stroke-dasharray:none;stroke-opacity:1"
       transform="matrix(1.3333333,0,0,-1.3333333,148.43227,398.02623)"
       clip-path="url(#clipPath3)" />
    <path
       id="path4"
       d="M 0,0 H 412.789"
       style="fill:none;stroke:#ffffff;stroke-width:0.288;stroke-linecap:butt;stroke-linejoin:round;stroke-miterlimit:10;stroke-dasharray:none;stroke-opacity:1"
       transform="matrix(1.3333333,0,0,-1.3333333,148.43227,314.65116)"
       clip-path="url(#clipPath5)" />
    <path
       id="path6"
       d="M 0,0 H 412.789"
       style="fill:none;stroke:#ffffff;stroke-width:0.288;stroke-linecap:butt;stroke-linejoin:round;stroke-miterlimit:10;stroke-dasharray:none;stroke-opacity:1"
       transform="matrix(1.3333333,0,0,-1.3333333,148.43227,231.27103)"
       clip-path="url(#clipPath7)" />
    <path
       id="path8"
       d="M 0,0 H 412.789"
       style="fill:none;stroke:#ffffff;stroke-width:0.288;stroke-linecap:butt;stroke-linejoin:round;stroke-miterlimit:10;stroke-dasharray:none;stroke-opacity:1"
       transform="matrix(1.3333333,0,0,-1.3333333,148.43227,147.89596)"
       clip-path="url(#clipPath9)" />
    <path
       id="path10"
       d="M 0,0 H 412.789"
       style="fill:none;stroke:#ffffff;stroke-width:0.575;stroke-linecap:butt;stroke-linejoin:round;stroke-miterlimit:10;stroke-dasharray:none;stroke-opacity:1"
       transform="matrix(1.3333333,0,0,-1.3333333,148.43227,439.71369)"
       clip-path="url(#clipPath11)" />
    <path
       id="path12"
       d="M 0,0 H 412.789"
       style="fill:none;stroke:#ffffff;stroke-width:0.575;stroke-linecap:butt;stroke-linejoin:round;stroke-miterlimit:10;stroke-dasharray:none;stroke-opacity:1"
       transform="matrix(1.3333333,0,0,-1.3333333,148.43227,356.33809)"
       clip-path="url(#clipPath13)" />
    <path
       id="path14"
       d="M 0,0 H 412.789"
       style="fill:none;stroke:#ffffff;stroke-width:0.575;stroke-linecap:butt;stroke-linejoin:round;stroke-miterlimit:10;stroke-dasharray:none;stroke-opacity:1"
       transform="matrix(1.3333333,0,0,-1.3333333,148.43227,272.95783)"
       clip-path="url(#clipPath15)" />
    <path
       id="path16"
       d="M 0,0 H 412.789"
       style="fill:none;stroke:#ffffff;stroke-width:0.575;stroke-linecap:butt;stroke-linejoin:round;stroke-miterlimit:10;stroke-dasharray:none;stroke-opacity:1"
       transform="matrix(1.3333333,0,0,-1.3333333,148.43227,189.58356)"
       clip-path="url(#clipPath17)" />
    <path
       id="path18"
       d="M 0,0 H 412.789"
       style="fill:none;stroke:#ffffff;stroke-width:0.575;stroke-linecap:butt;stroke-linejoin:round;stroke-miterlimit:10;stroke-dasharray:none;stroke-opacity:1"
       transform="matrix(1.3333333,0,0,-1.3333333,148.43227,106.20783)"
       clip-path="url(#clipPath19)" />
    <path
       id="path20"
       d="M 0,0 V 280.45"
       style="fill:none;stroke:#ffffff;stroke-width:0.575;stroke-linecap:butt;stroke-linejoin:round;stroke-miterlimit:10;stroke-dasharray:none;stroke-opacity:1"
       transform="matrix(1.3333333,0,0,-1.3333333,251.62493,456.70849)"
       clip-path="url(#clipPath21)" />
    <path
       id="path22"
       d="M 0,0 V 280.45"
       style="fill:none;stroke:#ffffff;stroke-width:0.575;stroke-linecap:butt;stroke-linejoin:round;stroke-miterlimit:10;stroke-dasharray:none;stroke-opacity:1"
       transform="matrix(1.3333333,0,0,-1.3333333,423.62493,456.70849)"
       clip-path="url(#clipPath23)" />
    <path
       id="path24"
       d="M 0,0 V 280.45"
       style="fill:none;stroke:#ffffff;stroke-width:0.575;stroke-linecap:butt;stroke-linejoin:round;stroke-miterlimit:10;stroke-dasharray:none;stroke-opacity:1"
       transform="matrix(1.3333333,0,0,-1.3333333,595.61973,456.70849)"
       clip-path="url(#clipPath25)" />
    <path
       id="path26"
       d="m 130.672,546.667 h 29.027 v -34.563 h -29.027 z"
       style="fill:#4793af;fill-opacity:1;fill-rule:nonzero;stroke:none"
       transform="matrix(1.3333333,0,0,-1.3333333,0,1122.5197)" />
    <path
       id="path27"
       d="m 259.668,546.667 h 29.027 v -34.563 h -29.027 z"
       style="fill:#4793af;fill-opacity:1;fill-rule:nonzero;stroke:none"
       transform="matrix(1.3333333,0,0,-1.3333333,0,1122.5197)" />
    <path
       id="path28"
       d="m 159.699,540.773 h 29.023 v -28.668 h -29.023 z"
       style="fill:#ffc470;fill-opacity:1;fill-rule:nonzero;stroke:none"
       transform="matrix(1.3333333,0,0,-1.3333333,0,1122.5197)" />
    <path
       id="path29"
       d="m 288.695,541.859 h 29.023 v -29.754 h -29.023 z"
       style="fill:#ffc470;fill-opacity:1;fill-rule:nonzero;stroke:none"
       transform="matrix(1.3333333,0,0,-1.3333333,0,1122.5197)" />
    <path
       id="path30"
       d="m 188.719,544.316 h 29.027 v -32.211 h -29.027 z"
       style="fill:#dd5746;fill-opacity:1;fill-rule:nonzero;stroke:none"
       transform="matrix(1.3333333,0,0,-1.3333333,0,1122.5197)" />
    <path
       id="path31"
       d="m 317.719,547.476 h 29.023 v -35.371 h -29.023 z"
       style="fill:#dd5746;fill-opacity:1;fill-rule:nonzero;stroke:none"
       transform="matrix(1.3333333,0,0,-1.3333333,0,1122.5197)" />
    <path
       id="path32"
       d="m 418.289,734.929 h 56.695 V 512.105 h -56.695 z"
       style="fill:#dd5746;fill-opacity:1;fill-rule:nonzero;stroke:none"
       transform="matrix(1.3333333,0,0,-1.3333333,0,1122.5197)" />
    <path
       id="path33"
       d="m 217.746,545.3 h 29.023 v -33.195 h -29.023 z"
       style="fill:#8b322c;fill-opacity:1;fill-rule:nonzero;stroke:none"
       transform="matrix(1.3333333,0,0,-1.3333333,0,1122.5197)" />
    <path
       id="path34"
       d="m 346.742,543.718 h 29.022 v -31.613 h -29.022 z"
       style="fill:#8b322c;fill-opacity:1;fill-rule:nonzero;stroke:none"
       transform="matrix(1.3333333,0,0,-1.3333333,0,1122.5197)" />
    <path
       id="path35"
       d="M 0,0 H 6.449"
       style="fill:none;stroke:#000000;stroke-width:0.575;stroke-linecap:butt;stroke-linejoin:round;stroke-miterlimit:10;stroke-dasharray:none;stroke-opacity:1"
       transform="matrix(1.3333333,0,0,-1.3333333,189.2812,389.51583)" />
    <path
       id="path36"
       d="M 0,0 V -6.172"
       style="fill:none;stroke:#000000;stroke-width:0.575;stroke-linecap:butt;stroke-linejoin:round;stroke-miterlimit:10;stroke-dasharray:none;stroke-opacity:1"
       transform="matrix(1.3333333,0,0,-1.3333333,193.5788,389.51583)" />
    <path
       id="path37"
       d="M 0,0 H 6.449"
       style="fill:none;stroke:#000000;stroke-width:0.575;stroke-linecap:butt;stroke-linejoin:round;stroke-miterlimit:10;stroke-dasharray:none;stroke-opacity:1"
       transform="matrix(1.3333333,0,0,-1.3333333,189.2812,397.74556)" />
    <path
       id="path38"
       d="M 0,0 H 6.449"
       style="fill:none;stroke:#000000;stroke-width:0.575;stroke-linecap:butt;stroke-linejoin:round;stroke-miterlimit:10;stroke-dasharray:none;stroke-opacity:1"
       transform="matrix(1.3333333,0,0,-1.3333333,361.276,389.51583)" />
    <path
       id="path39"
       d="M 0,0 V -6.172"
       style="fill:none;stroke:#000000;stroke-width:0.575;stroke-linecap:butt;stroke-linejoin:round;stroke-miterlimit:10;stroke-dasharray:none;stroke-opacity:1"
       transform="matrix(1.3333333,0,0,-1.3333333,365.5736,389.51583)" />
    <path
       id="path40"
       d="M 0,0 H 6.449"
       style="fill:none;stroke:#000000;stroke-width:0.575;stroke-linecap:butt;stroke-linejoin:round;stroke-miterlimit:10;stroke-dasharray:none;stroke-opacity:1"
       transform="matrix(1.3333333,0,0,-1.3333333,361.276,397.74556)" />
    <path
       id="path41"
       d="M 0,0 H 6.45"
       style="fill:none;stroke:#000000;stroke-width:0.575;stroke-linecap:butt;stroke-linejoin:round;stroke-miterlimit:10;stroke-dasharray:none;stroke-opacity:1"
       transform="matrix(1.3333333,0,0,-1.3333333,227.97853,396.91156)" />
    <path
       id="path42"
       d="M 0,0 V -6.863"
       style="fill:none;stroke:#000000;stroke-width:0.575;stroke-linecap:butt;stroke-linejoin:round;stroke-miterlimit:10;stroke-dasharray:none;stroke-opacity:1"
       transform="matrix(1.3333333,0,0,-1.3333333,232.276,396.91156)" />
    <path
       id="path43"
       d="M 0,0 H 6.45"
       style="fill:none;stroke:#000000;stroke-width:0.575;stroke-linecap:butt;stroke-linejoin:round;stroke-miterlimit:10;stroke-dasharray:none;stroke-opacity:1"
       transform="matrix(1.3333333,0,0,-1.3333333,227.97853,406.06263)" />
    <path
       id="path44"
       d="M 0,0 H 6.449"
       style="fill:none;stroke:#000000;stroke-width:0.575;stroke-linecap:butt;stroke-linejoin:round;stroke-miterlimit:10;stroke-dasharray:none;stroke-opacity:1"
       transform="matrix(1.3333333,0,0,-1.3333333,399.974,394.98516)" />
    <path
       id="path45"
       d="M 0,0 V -7.585"
       style="fill:none;stroke:#000000;stroke-width:0.575;stroke-linecap:butt;stroke-linejoin:round;stroke-miterlimit:10;stroke-dasharray:none;stroke-opacity:1"
       transform="matrix(1.3333333,0,0,-1.3333333,404.276,394.98516)" />
    <path
       id="path46"
       d="M 0,0 H 6.449"
       style="fill:none;stroke:#000000;stroke-width:0.575;stroke-linecap:butt;stroke-linejoin:round;stroke-miterlimit:10;stroke-dasharray:none;stroke-opacity:1"
       transform="matrix(1.3333333,0,0,-1.3333333,399.974,405.09916)" />
    <path
       id="path47"
       d="M 0,0 H 6.449"
       style="fill:none;stroke:#000000;stroke-width:0.575;stroke-linecap:butt;stroke-linejoin:round;stroke-miterlimit:10;stroke-dasharray:none;stroke-opacity:1"
       transform="matrix(1.3333333,0,0,-1.3333333,266.67707,390.70263)" />
    <path
       id="path48"
       d="M 0,0 V -9.094"
       style="fill:none;stroke:#000000;stroke-width:0.575;stroke-linecap:butt;stroke-linejoin:round;stroke-miterlimit:10;stroke-dasharray:none;stroke-opacity:1"
       transform="matrix(1.3333333,0,0,-1.3333333,270.97853,390.70263)" />
    <path
       id="path49"
       d="M 0,0 H 6.449"
       style="fill:none;stroke:#000000;stroke-width:0.575;stroke-linecap:butt;stroke-linejoin:round;stroke-miterlimit:10;stroke-dasharray:none;stroke-opacity:1"
       transform="matrix(1.3333333,0,0,-1.3333333,266.67707,402.82823)" />
    <path
       id="path50"
       d="M 0,0 H 6.453"
       style="fill:none;stroke:#000000;stroke-width:0.575;stroke-linecap:butt;stroke-linejoin:round;stroke-miterlimit:10;stroke-dasharray:none;stroke-opacity:1"
       transform="matrix(1.3333333,0,0,-1.3333333,438.67187,386.09916)" />
    <path
       id="path51"
       d="M 0,0 V -9.683"
       style="fill:none;stroke:#000000;stroke-width:0.575;stroke-linecap:butt;stroke-linejoin:round;stroke-miterlimit:10;stroke-dasharray:none;stroke-opacity:1"
       transform="matrix(1.3333333,0,0,-1.3333333,442.974,386.09916)" />
    <path
       id="path52"
       d="M 0,0 H 6.453"
       style="fill:none;stroke:#000000;stroke-width:0.575;stroke-linecap:butt;stroke-linejoin:round;stroke-miterlimit:10;stroke-dasharray:none;stroke-opacity:1"
       transform="matrix(1.3333333,0,0,-1.3333333,438.67187,399.00996)" />
    <path
       id="path53"
       d="M 0,0 H 14.172"
       style="fill:none;stroke:#000000;stroke-width:0.427;stroke-linecap:butt;stroke-linejoin:round;stroke-miterlimit:10;stroke-dasharray:none;stroke-opacity:1"
       transform="matrix(1.3333333,0,0,-1.3333333,586.06253,99.614761)" />
    <path
       id="path54"
       d="M 0,0 V -64.257"
       style="fill:none;stroke:#000000;stroke-width:0.575;stroke-linecap:butt;stroke-linejoin:round;stroke-miterlimit:10;stroke-dasharray:none;stroke-opacity:1"
       transform="matrix(1.3333333,0,0,-1.3333333,595.61973,99.776228)" />
    <path
       id="path55"
       d="M 0,0 H 6.449"
       style="fill:none;stroke:#000000;stroke-width:0.575;stroke-linecap:butt;stroke-linejoin:round;stroke-miterlimit:10;stroke-dasharray:none;stroke-opacity:1"
       transform="matrix(1.3333333,0,0,-1.3333333,305.37493,388.45783)" />
    <path
       id="path56"
       d="M 0,0 V -10.493"
       style="fill:none;stroke:#000000;stroke-width:0.575;stroke-linecap:butt;stroke-linejoin:round;stroke-miterlimit:10;stroke-dasharray:none;stroke-opacity:1"
       transform="matrix(1.3333333,0,0,-1.3333333,309.67707,388.45783)" />
    <path
       id="path57"
       d="M 0,0 H 6.449"
       style="fill:none;stroke:#000000;stroke-width:0.575;stroke-linecap:butt;stroke-linejoin:round;stroke-miterlimit:10;stroke-dasharray:none;stroke-opacity:1"
       transform="matrix(1.3333333,0,0,-1.3333333,305.37493,402.44809)" />
    <path
       id="path58"
       d="M 0,0 H 6.449"
       style="fill:none;stroke:#000000;stroke-width:0.575;stroke-linecap:butt;stroke-linejoin:round;stroke-miterlimit:10;stroke-dasharray:none;stroke-opacity:1"
       transform="matrix(1.3333333,0,0,-1.3333333,477.36973,392.27623)" />
    <path
       id="path59"
       d="M 0,0 V -7.934"
       style="fill:none;stroke:#000000;stroke-width:0.575;stroke-linecap:butt;stroke-linejoin:round;stroke-miterlimit:10;stroke-dasharray:none;stroke-opacity:1"
       transform="matrix(1.3333333,0,0,-1.3333333,481.67187,392.27623)" />
    <path
       id="path60"
       d="M 0,0 H 6.449"
       style="fill:none;stroke:#000000;stroke-width:0.575;stroke-linecap:butt;stroke-linejoin:round;stroke-miterlimit:10;stroke-dasharray:none;stroke-opacity:1"
       transform="matrix(1.3333333,0,0,-1.3333333,477.36973,402.85436)" />
    <path
       id="path61"
       d="m 111.325,779.808 h 412.789 v 13.969 H 111.325 Z"
       style="fill:#d9d9d9;fill-opacity:1;fill-rule:nonzero;stroke:none"
       transform="matrix(1.3333333,0,0,-1.3333333,0,1122.5197)" />
    <path
       id="path62"
       d="M 0,0 V 1.387"
       style="fill:none;stroke:#333333;stroke-width:0.575;stroke-linecap:butt;stroke-linejoin:round;stroke-miterlimit:10;stroke-dasharray:none;stroke-opacity:1"
       transform="matrix(1.3333333,0,0,-1.3333333,251.40107,440.68249)" />
    <path
       id="path63"
       d="M 0,0 V 1.387"
       style="fill:none;stroke:#333333;stroke-width:0.575;stroke-linecap:butt;stroke-linejoin:round;stroke-miterlimit:10;stroke-dasharray:none;stroke-opacity:1"
       transform="matrix(1.3333333,0,0,-1.3333333,423.39587,440.68249)" />
    <path
       id="path64"
       d="M 0,0 V 1.387"
       style="fill:none;stroke:#333333;stroke-width:0.575;stroke-linecap:butt;stroke-linejoin:round;stroke-miterlimit:10;stroke-dasharray:none;stroke-opacity:1"
       transform="matrix(1.3333333,0,0,-1.3333333,595.39587,440.68249)" />
    <path
       id="path65"
       d="M 0,0 H 1.578"
       style="fill:none;stroke:#333333;stroke-width:0.575;stroke-linecap:butt;stroke-linejoin:round;stroke-miterlimit:10;stroke-dasharray:none;stroke-opacity:1"
       transform="matrix(1.3333333,0,0,-1.3333333,146.10413,439.83809)" />
    <path
       id="path66"
       d="M 0,0 H 1.578"
       style="fill:none;stroke:#333333;stroke-width:0.575;stroke-linecap:butt;stroke-linejoin:round;stroke-miterlimit:10;stroke-dasharray:none;stroke-opacity:1"
       transform="matrix(1.3333333,0,0,-1.3333333,146.10413,356.46369)" />
    <path
       id="path67"
       d="M 0,0 H 1.578"
       style="fill:none;stroke:#333333;stroke-width:0.575;stroke-linecap:butt;stroke-linejoin:round;stroke-miterlimit:10;stroke-dasharray:none;stroke-opacity:1"
       transform="matrix(1.3333333,0,0,-1.3333333,146.10413,273.08356)" />
    <path
       id="path68"
       d="M 0,0 H 1.578"
       style="fill:none;stroke:#333333;stroke-width:0.575;stroke-linecap:butt;stroke-linejoin:round;stroke-miterlimit:10;stroke-dasharray:none;stroke-opacity:1"
       transform="matrix(1.3333333,0,0,-1.3333333,146.10413,189.70783)" />
    <path
       id="path69"
       d="M 0,0 H 1.578"
       style="fill:none;stroke:#333333;stroke-width:0.575;stroke-linecap:butt;stroke-linejoin:round;stroke-miterlimit:10;stroke-dasharray:none;stroke-opacity:1"
       transform="matrix(1.3333333,0,0,-1.3333333,146.10413,106.33356)" />
    <path
       id="path70"
       d="m 146.344,756.023 h 13.941 V 743.75 h -13.941 z"
       style="fill:#4793af;fill-opacity:1;fill-rule:nonzero;stroke:none"
       transform="matrix(1.3333333,0,0,-1.3333333,0,1122.5197)" />
    <path
       id="path71"
       d="m 146.344,742.656 h 13.941 v -12.277 h -13.941 z"
       style="fill:#ffc470;fill-opacity:1;fill-rule:nonzero;stroke:none"
       transform="matrix(1.3333333,0,0,-1.3333333,0,1122.5197)" />
    <path
       id="path72"
       d="m 146.344,729.285 h 13.941 v -12.277 h -13.941 z"
       style="fill:#dd5746;fill-opacity:1;fill-rule:nonzero;stroke:none"
       transform="matrix(1.3333333,0,0,-1.3333333,0,1122.5197)" />
    <path
       id="path73"
       d="m 146.344,715.91 h 13.941 v -12.273 h -13.941 z"
       style="fill:#8b322c;fill-opacity:1;fill-rule:nonzero;stroke:none"
       transform="matrix(1.3333333,0,0,-1.3333333,0,1122.5197)" />
    <text
       id="text73"
       xml:space="preserve"
       transform="matrix(1.3333333,0,0,1.3333333,198.0312,104.58223)"><tspan
         style="font-variant:normal;font-weight:normal;font-stretch:normal;font-size:11px;font-family:'DejaVu Sans';writing-mode:lr-tb;fill:#000000;fill-opacity:1;fill-rule:nonzero;stroke:none"
         x="0 7.678 14.41 21.384001 27.236 34.000999 40.974998 45.286999 49.807999 56.550999 60.862999 63.789001 70.521004 77.495003"
         y="0"
         sodipodi:role="line"
         id="tspan73">Concentrations</tspan><tspan
         style="font-variant:normal;font-weight:normal;font-stretch:normal;font-size:11px;font-family:'DejaVu Sans';writing-mode:lr-tb;fill:#000000;fill-opacity:1;fill-rule:nonzero;stroke:none"
         x="15.785 25.278 32.042999 39.028 41.888 48.631001 52.129002 56.418999 63.393002 70.157997 76.945 83.688004 88 91.057999 97.404999 104.17"
         y="15.367"
         sodipodi:role="line"
         id="tspan74">Media (negative)</tspan><tspan
         style="font-variant:normal;font-weight:normal;font-stretch:normal;font-size:11px;font-family:'DejaVu Sans';writing-mode:lr-tb;fill:#000000;fill-opacity:1;fill-rule:nonzero;stroke:none"
         x="15.675 22.671"
         y="28.566999"
         sodipodi:role="line"
         id="tspan75">1e</tspan></text>
    <text
       id="text75"
       xml:space="preserve"
       transform="matrix(1.3333333,0,0,1.3333333,237.24733,136.79969)"><tspan
         style="font-variant:normal;font-weight:normal;font-stretch:normal;font-size:7.15px;font-family:'DejaVu Sans';writing-mode:lr-tb;fill:#000000;fill-opacity:1;fill-rule:nonzero;stroke:none"
         x="0 3.9396501"
         y="0"
         sodipodi:role="line"
         id="tspan76">-6</tspan></text>
    <text
       id="text76"
       xml:space="preserve"
       transform="matrix(1.3333333,0,0,1.3333333,253.26693,142.66556)"><tspan
         style="font-variant:normal;font-weight:normal;font-stretch:normal;font-size:11px;font-family:'DejaVu Sans';writing-mode:lr-tb;fill:#000000;fill-opacity:1;fill-rule:nonzero;stroke:none"
         x="0"
         y="0"
         id="tspan77">M</tspan><tspan
         style="font-variant:normal;font-weight:normal;font-stretch:normal;font-size:11px;font-family:'DejaVu Sans';writing-mode:lr-tb;fill:#000000;fill-opacity:1;fill-rule:nonzero;stroke:none"
         x="-25.773001 -18.777"
         y="14.872"
         sodipodi:role="line"
         id="tspan78">1e</tspan></text>
    <text
       id="text78"
       xml:space="preserve"
       transform="matrix(1.3333333,0,0,1.3333333,237.24733,156.63169)"><tspan
         style="font-variant:normal;font-weight:normal;font-stretch:normal;font-size:7.15px;font-family:'DejaVu Sans';writing-mode:lr-tb;fill:#000000;fill-opacity:1;fill-rule:nonzero;stroke:none"
         x="0 3.9396501"
         y="0"
         sodipodi:role="line"
         id="tspan79">-5</tspan></text>
    <text
       id="text79"
       xml:space="preserve"
       transform="matrix(1.3333333,0,0,1.3333333,253.2468,162.49756)"><tspan
         style="font-variant:normal;font-weight:normal;font-stretch:normal;font-size:11px;font-family:'DejaVu Sans';writing-mode:lr-tb;fill:#000000;fill-opacity:1;fill-rule:nonzero;stroke:none"
         x="0"
         y="0"
         id="tspan80">M</tspan><tspan
         style="font-variant:normal;font-weight:normal;font-stretch:normal;font-size:11px;font-family:'DejaVu Sans';writing-mode:lr-tb;fill:#000000;fill-opacity:1;fill-rule:nonzero;stroke:none"
         x="-25.761999 -18.766001"
         y="14.905"
         sodipodi:role="line"
         id="tspan81">1e</tspan></text>
    <text
       id="text81"
       xml:space="preserve"
       transform="matrix(1.3333333,0,0,1.3333333,237.24733,176.50543)"><tspan
         style="font-variant:normal;font-weight:normal;font-stretch:normal;font-size:7.15px;font-family:'DejaVu Sans';writing-mode:lr-tb;fill:#000000;fill-opacity:1;fill-rule:nonzero;stroke:none"
         x="0 3.9396501"
         y="0"
         sodipodi:role="line"
         id="tspan82">-4</tspan></text>
    <text
       id="text82"
       xml:space="preserve"
       transform="matrix(1.3333333,0,0,1.3333333,253.2468,182.37129)"><tspan
         style="font-variant:normal;font-weight:normal;font-stretch:normal;font-size:11px;font-family:'DejaVu Sans';writing-mode:lr-tb;fill:#000000;fill-opacity:1;fill-rule:nonzero;stroke:none"
         x="0"
         y="0"
         id="tspan83">M</tspan></text>
    <text
       id="text83"
       xml:space="preserve"
       transform="matrix(1.3333333,0,0,1.3333333,129.23573,444.92209)"><tspan
         style="font-variant:normal;font-weight:normal;font-stretch:normal;font-size:14px;font-family:'DejaVu Sans';writing-mode:lr-tb;fill:#000000;fill-opacity:1;fill-rule:nonzero;stroke:none"
         x="0"
         y="0"
         id="tspan84">0</tspan><tspan
         style="font-variant:normal;font-weight:normal;font-stretch:normal;font-size:14px;font-family:'DejaVu Sans';writing-mode:lr-tb;fill:#000000;fill-opacity:1;fill-rule:nonzero;stroke:none"
         x="-33.796001 -24.892 -16.604 -7.6999998"
         y="-60.214001"
         sodipodi:role="line"
         id="tspan85">2x10</tspan></text>
    <text
       id="text85"
       xml:space="preserve"
       transform="matrix(1.3333333,0,0,1.3333333,130.85347,358.41423)"><tspan
         style="font-variant:normal;font-weight:normal;font-stretch:normal;font-size:8.162px;font-family:'DejaVu Sans';writing-mode:lr-tb;fill:#000000;fill-opacity:1;fill-rule:nonzero;stroke:none"
         x="0"
         y="0"
         id="tspan86">6</tspan></text>
    <text
       id="text86"
       xml:space="preserve"
       transform="matrix(1.3333333,0,0,1.3333333,84.177733,279.58876)"><tspan
         style="font-variant:normal;font-weight:normal;font-stretch:normal;font-size:14px;font-family:'DejaVu Sans';writing-mode:lr-tb;fill:#000000;fill-opacity:1;fill-rule:nonzero;stroke:none"
         x="0 8.9040003 17.191999 26.096001"
         y="0"
         sodipodi:role="line"
         id="tspan87">4x10</tspan></text>
    <text
       id="text87"
       xml:space="preserve"
       transform="matrix(1.3333333,0,0,1.3333333,130.85347,273.37249)"><tspan
         style="font-variant:normal;font-weight:normal;font-stretch:normal;font-size:8.162px;font-family:'DejaVu Sans';writing-mode:lr-tb;fill:#000000;fill-opacity:1;fill-rule:nonzero;stroke:none"
         x="0"
         y="0"
         id="tspan88">6</tspan></text>
    <text
       id="text88"
       xml:space="preserve"
       transform="matrix(1.3333333,0,0,1.3333333,84.177733,196.18116)"><tspan
         style="font-variant:normal;font-weight:normal;font-stretch:normal;font-size:14px;font-family:'DejaVu Sans';writing-mode:lr-tb;fill:#000000;fill-opacity:1;fill-rule:nonzero;stroke:none"
         x="0 8.9040003 17.191999 26.096001"
         y="0"
         sodipodi:role="line"
         id="tspan89">6x10</tspan></text>
    <text
       id="text89"
       xml:space="preserve"
       transform="matrix(1.3333333,0,0,1.3333333,130.85347,189.96503)"><tspan
         style="font-variant:normal;font-weight:normal;font-stretch:normal;font-size:8.162px;font-family:'DejaVu Sans';writing-mode:lr-tb;fill:#000000;fill-opacity:1;fill-rule:nonzero;stroke:none"
         x="0"
         y="0"
         id="tspan90">6</tspan></text>
    <text
       id="text90"
       xml:space="preserve"
       transform="matrix(1.3333333,0,0,1.3333333,84.177733,113.31143)"><tspan
         style="font-variant:normal;font-weight:normal;font-stretch:normal;font-size:14px;font-family:'DejaVu Sans';writing-mode:lr-tb;fill:#000000;fill-opacity:1;fill-rule:nonzero;stroke:none"
         x="0 8.9040003 17.191999 26.096001"
         y="0"
         sodipodi:role="line"
         id="tspan91">8x10</tspan></text>
    <text
       id="text91"
       xml:space="preserve"
       transform="matrix(1.3333333,0,0,1.3333333,130.85347,107.09516)"><tspan
         style="font-variant:normal;font-weight:normal;font-stretch:normal;font-size:8.162px;font-family:'DejaVu Sans';writing-mode:lr-tb;fill:#000000;fill-opacity:1;fill-rule:nonzero;stroke:none"
         x="0"
         y="0"
         id="tspan92">6</tspan></text>
    <path
       id="path92"
       d="M 0,0 H 14.172"
       style="fill:none;stroke:#000000;stroke-width:0.427;stroke-linecap:butt;stroke-linejoin:round;stroke-miterlimit:10;stroke-dasharray:none;stroke-opacity:1"
       transform="matrix(1.3333333,0,0,-1.3333333,586.0416,185.29703)" />
    <text
       id="text92"
       xml:space="preserve"
       transform="matrix(1.3333333,0,0,1.3333333,223.45707,457.94423)"><tspan
         style="font-variant:normal;font-weight:normal;font-stretch:normal;font-size:14px;font-family:'DejaVu Sans';writing-mode:lr-tb;fill:#000000;fill-opacity:1;fill-rule:nonzero;stroke:none"
         x="0 9.5760002 15.33 25.101999 34.874001 44.057999 129.17799 138.754 144.508 154.28 164.09399 173.278"
         y="0"
         sodipodi:role="line"
         id="tspan93">ArCCK1ArCCK2</tspan><tspan
         style="font-variant:normal;font-weight:normal;font-stretch:normal;font-size:14px;font-family:'DejaVu Sans';writing-mode:lr-tb;fill:#000000;fill-opacity:1;fill-rule:nonzero;stroke:none"
         x="236.908 243.362 249.116 253.008 258.496 267.064 275.94 280.392 289.98199 295.03601 303.94 312.84399"
         y="0.126"
         sodipodi:role="line"
         id="tspan94">Triton X-100</tspan></text>
    <path
       id="path94"
       d="m 148.73603,511.88108 -2.05089,442.38081 549.24269,-3.75493 1.91106,-1.9316 0.68364,-429.3945 z"
       style="fill:#e2f0ff;fill-opacity:1;fill-rule:nonzero;stroke:none;stroke-width:1.33049"
       sodipodi:nodetypes="cccccc" />
    <path
       id="path95"
       d="M 0,0 418.727,5"
       style="fill:none;stroke:#ffffff;stroke-width:0.314;stroke-linecap:butt;stroke-linejoin:round;stroke-miterlimit:10;stroke-dasharray:none;stroke-opacity:1"
       transform="matrix(1.3333333,0,0,-1.3333333,149.10413,897.60956)"
       clip-path="url(#clipPath96)" />
    <path
       id="path97"
       d="M 0,0 418.727,5"
       style="fill:none;stroke:#ffffff;stroke-width:0.314;stroke-linecap:butt;stroke-linejoin:round;stroke-miterlimit:10;stroke-dasharray:none;stroke-opacity:1"
       transform="matrix(1.3333333,0,0,-1.3333333,149.10413,790.50023)"
       clip-path="url(#clipPath98)" />
    <path
       id="path99"
       d="M 0,0 418.727,5"
       style="fill:none;stroke:#ffffff;stroke-width:0.314;stroke-linecap:butt;stroke-linejoin:round;stroke-miterlimit:10;stroke-dasharray:none;stroke-opacity:1"
       transform="matrix(1.3333333,0,0,-1.3333333,149.10413,683.38036)"
       clip-path="url(#clipPath100)" />
    <path
       id="path101"
       d="M 0,0 418.727,5"
       style="fill:none;stroke:#ffffff;stroke-width:0.314;stroke-linecap:butt;stroke-linejoin:round;stroke-miterlimit:10;stroke-dasharray:none;stroke-opacity:1"
       transform="matrix(1.3333333,0,0,-1.3333333,149.10413,576.26583)"
       clip-path="url(#clipPath102)" />
    <path
       id="path103"
       d="M 0,0 418.727,5"
       style="fill:none;stroke:#ffffff;stroke-width:0.629;stroke-linecap:butt;stroke-linejoin:round;stroke-miterlimit:10;stroke-dasharray:none;stroke-opacity:1"
       transform="matrix(1.3333333,0,0,-1.3333333,149.10413,951.16689)"
       clip-path="url(#clipPath104)" />
    <path
       id="path105"
       d="M 0,0 418.727,5"
       style="fill:none;stroke:#ffffff;stroke-width:0.629;stroke-linecap:butt;stroke-linejoin:round;stroke-miterlimit:10;stroke-dasharray:none;stroke-opacity:1"
       transform="matrix(1.3333333,0,0,-1.3333333,149.10413,844.05223)"
       clip-path="url(#clipPath106)" />
    <path
       id="path107"
       d="M 0,0 418.727,5"
       style="fill:none;stroke:#ffffff;stroke-width:0.629;stroke-linecap:butt;stroke-linejoin:round;stroke-miterlimit:10;stroke-dasharray:none;stroke-opacity:1"
       transform="matrix(1.3333333,0,0,-1.3333333,149.10413,736.94289)"
       clip-path="url(#clipPath108)" />
    <path
       id="path109"
       d="M 0,0 418.727,5"
       style="fill:none;stroke:#ffffff;stroke-width:0.629;stroke-linecap:butt;stroke-linejoin:round;stroke-miterlimit:10;stroke-dasharray:none;stroke-opacity:1"
       transform="matrix(1.3333333,0,0,-1.3333333,149.10413,629.82303)"
       clip-path="url(#clipPath110)" />
    <path
       id="path111"
       d="M 0,0 V 326.465"
       style="fill:none;stroke:#ffffff;stroke-width:0.629;stroke-linecap:butt;stroke-linejoin:round;stroke-miterlimit:10;stroke-dasharray:none;stroke-opacity:1"
       transform="matrix(1.3333333,0,0,-1.3333333,300.36,970.95329)"
       clip-path="url(#clipPath112)" />
    <path
       id="path113"
       d="M 0,0 V 326.465"
       style="fill:none;stroke:#ffffff;stroke-width:0.629;stroke-linecap:butt;stroke-linejoin:round;stroke-miterlimit:10;stroke-dasharray:none;stroke-opacity:1"
       transform="matrix(1.3333333,0,0,-1.3333333,554.13027,970.95329)"
       clip-path="url(#clipPath114)" />
    <path
       id="path115"
       d="m 140.375,160.757 h 42.824 v -32.242 h -42.824 z"
       style="fill:#4793af;fill-opacity:1;fill-rule:nonzero;stroke:none"
       transform="matrix(1.3333333,0,0,-1.3333333,0,1122.5197)" />
    <path
       id="path116"
       d="m 183.199,155.065 h 42.824 v -26.551 h -42.824 z"
       style="fill:#ffc470;fill-opacity:1;fill-rule:nonzero;stroke:none"
       transform="matrix(1.3333333,0,0,-1.3333333,0,1122.5197)" />
    <path
       id="path117"
       d="m 226.027,152.933 h 42.824 v -24.418 h -42.824 z"
       style="fill:#dd5746;fill-opacity:1;fill-rule:nonzero;stroke:none"
       transform="matrix(1.3333333,0,0,-1.3333333,0,1122.5197)" />
    <path
       id="path118"
       d="m 386.422,414.214 h 60 V 129.128 h -60 z"
       style="fill:#dd5746;fill-opacity:1;fill-rule:nonzero;stroke:none"
       transform="matrix(1.3333333,0,0,-1.3333333,0,1122.5197)" />
    <path
       id="path119"
       d="m 268.852,157.956 h 42.82 v -29.441 h -42.82 z"
       style="fill:#8b322c;fill-opacity:1;fill-rule:nonzero;stroke:none"
       transform="matrix(1.3333333,0,0,-1.3333333,0,1122.5197)" />
    <path
       id="path120"
       d="M 0,0 H 9.516"
       style="fill:none;stroke:#000000;stroke-width:0.629;stroke-linecap:butt;stroke-linejoin:round;stroke-miterlimit:10;stroke-dasharray:none;stroke-opacity:1"
       transform="matrix(1.3333333,0,0,-1.3333333,209.3744,902.51063)" />
    <path
       id="path121"
       d="M 0,0 V -8.5"
       style="fill:none;stroke:#000000;stroke-width:0.629;stroke-linecap:butt;stroke-linejoin:round;stroke-miterlimit:10;stroke-dasharray:none;stroke-opacity:1"
       transform="matrix(1.3333333,0,0,-1.3333333,215.7188,902.51063)" />
    <path
       id="path122"
       d="M 0,0 H 9.516"
       style="fill:none;stroke:#000000;stroke-width:0.629;stroke-linecap:butt;stroke-linejoin:round;stroke-miterlimit:10;stroke-dasharray:none;stroke-opacity:1"
       transform="matrix(1.3333333,0,0,-1.3333333,209.3744,913.84396)" />
    <path
       id="path123"
       d="M 0,0 H 9.516"
       style="fill:none;stroke:#000000;stroke-width:0.629;stroke-linecap:butt;stroke-linejoin:round;stroke-miterlimit:10;stroke-dasharray:none;stroke-opacity:1"
       transform="matrix(1.3333333,0,0,-1.3333333,266.47333,908.81783)" />
    <path
       id="path124"
       d="M 0,0 V -10.422"
       style="fill:none;stroke:#000000;stroke-width:0.629;stroke-linecap:butt;stroke-linejoin:round;stroke-miterlimit:10;stroke-dasharray:none;stroke-opacity:1"
       transform="matrix(1.3333333,0,0,-1.3333333,272.81707,908.81783)" />
    <path
       id="path125"
       d="M 0,0 H 9.516"
       style="fill:none;stroke:#000000;stroke-width:0.629;stroke-linecap:butt;stroke-linejoin:round;stroke-miterlimit:10;stroke-dasharray:none;stroke-opacity:1"
       transform="matrix(1.3333333,0,0,-1.3333333,266.47333,922.71369)" />
    <path
       id="path126"
       d="M 0,0 H 9.515"
       style="fill:none;stroke:#000000;stroke-width:0.629;stroke-linecap:butt;stroke-linejoin:round;stroke-miterlimit:10;stroke-dasharray:none;stroke-opacity:1"
       transform="matrix(1.3333333,0,0,-1.3333333,323.5736,914.97276)" />
    <path
       id="path127"
       d="M 0,0 V -5.45"
       style="fill:none;stroke:#000000;stroke-width:0.629;stroke-linecap:butt;stroke-linejoin:round;stroke-miterlimit:10;stroke-dasharray:none;stroke-opacity:1"
       transform="matrix(1.3333333,0,0,-1.3333333,329.91733,914.97276)" />
    <path
       id="path128"
       d="M 0,0 H 9.515"
       style="fill:none;stroke:#000000;stroke-width:0.629;stroke-linecap:butt;stroke-linejoin:round;stroke-miterlimit:10;stroke-dasharray:none;stroke-opacity:1"
       transform="matrix(1.3333333,0,0,-1.3333333,323.5736,922.23969)" />
    <path
       id="path129"
       d="M 0,0 H 17.008"
       style="fill:none;stroke:#000000;stroke-width:0.42;stroke-linecap:butt;stroke-linejoin:round;stroke-miterlimit:10;stroke-dasharray:none;stroke-opacity:1"
       transform="matrix(1.3333333,0,0,-1.3333333,543.7656,555.21889)" />
    <path
       id="path130"
       d="M 0,0 V -23.398"
       style="fill:none;stroke:#000000;stroke-width:0.629;stroke-linecap:butt;stroke-linejoin:round;stroke-miterlimit:10;stroke-dasharray:none;stroke-opacity:1"
       transform="matrix(1.3333333,0,0,-1.3333333,555.14067,555.45329)" />
    <path
       id="path131"
       d="M 0,0 H 17.008"
       style="fill:none;stroke:#000000;stroke-width:0.42;stroke-linecap:butt;stroke-linejoin:round;stroke-miterlimit:10;stroke-dasharray:none;stroke-opacity:1"
       transform="matrix(1.3333333,0,0,-1.3333333,543.7656,586.41556)" />
    <path
       id="path132"
       d="M 0,0 H 9.516"
       style="fill:none;stroke:#000000;stroke-width:0.629;stroke-linecap:butt;stroke-linejoin:round;stroke-miterlimit:10;stroke-dasharray:none;stroke-opacity:1"
       transform="matrix(1.3333333,0,0,-1.3333333,380.67187,906.38036)" />
    <path
       id="path133"
       d="M 0,0 V -8.293"
       style="fill:none;stroke:#000000;stroke-width:0.629;stroke-linecap:butt;stroke-linejoin:round;stroke-miterlimit:10;stroke-dasharray:none;stroke-opacity:1"
       transform="matrix(1.3333333,0,0,-1.3333333,387.01627,906.38036)" />
    <path
       id="path134"
       d="M 0,0 H 9.516"
       style="fill:none;stroke:#000000;stroke-width:0.629;stroke-linecap:butt;stroke-linejoin:round;stroke-miterlimit:10;stroke-dasharray:none;stroke-opacity:1"
       transform="matrix(1.3333333,0,0,-1.3333333,380.67187,917.43769)" />
    <text
       id="text134"
       xml:space="preserve"
       transform="matrix(1.3333333,0,0,1.3333333,266.92453,972.28663)"><tspan
         style="font-variant:normal;font-weight:normal;font-stretch:normal;font-size:14px;font-family:'DejaVu Sans';writing-mode:lr-tb;fill:#000000;fill-opacity:1;fill-rule:nonzero;stroke:none"
         x="0 11.018 19.306 29.077999 38.849998 48.034"
         y="0"
         sodipodi:role="line"
         id="tspan134">OvCCK2</tspan><tspan
         style="font-variant:normal;font-weight:normal;font-stretch:normal;font-size:14px;font-family:'DejaVu Sans';writing-mode:lr-tb;fill:#000000;fill-opacity:1;fill-rule:nonzero;stroke:none"
         x="172.89999 179.354 185.108 189 194.48801 203.056 211.93201 216.384 225.974 231.028 239.93201 248.836"
         y="-0.53200001"
         sodipodi:role="line"
         id="tspan135">Triton X-100</tspan></text>
    <path
       id="path135"
       d="M 0,0 H 1.578"
       style="fill:none;stroke:#333333;stroke-width:0.575;stroke-linecap:butt;stroke-linejoin:round;stroke-miterlimit:10;stroke-dasharray:none;stroke-opacity:1"
       transform="matrix(1.3333333,0,0,-1.3333333,147,629.82303)" />
    <path
       id="path136"
       d="M 0,0 H 1.578"
       style="fill:none;stroke:#333333;stroke-width:0.575;stroke-linecap:butt;stroke-linejoin:round;stroke-miterlimit:10;stroke-dasharray:none;stroke-opacity:1"
       transform="matrix(1.3333333,0,0,-1.3333333,147,736.94289)" />
    <path
       id="path137"
       d="M 0,0 H 1.578"
       style="fill:none;stroke:#333333;stroke-width:0.575;stroke-linecap:butt;stroke-linejoin:round;stroke-miterlimit:10;stroke-dasharray:none;stroke-opacity:1"
       transform="matrix(1.3333333,0,0,-1.3333333,147,844.05223)" />
    <path
       id="path138"
       d="M 0,0 H 1.574"
       style="fill:none;stroke:#333333;stroke-width:0.575;stroke-linecap:butt;stroke-linejoin:round;stroke-miterlimit:10;stroke-dasharray:none;stroke-opacity:1"
       transform="matrix(1.3333333,0,0,-1.3333333,147.0052,951.16689)" />
    <text
       id="text138"
       xml:space="preserve"
       transform="matrix(1.3333333,0,0,1.3333333,131.2676,951.01129)"><tspan
         style="font-variant:normal;font-weight:normal;font-stretch:normal;font-size:14px;font-family:'DejaVu Sans';writing-mode:lr-tb;fill:#000000;fill-opacity:1;fill-rule:nonzero;stroke:none"
         x="0"
         y="0"
         id="tspan138">0</tspan><tspan
         style="font-variant:normal;font-weight:normal;font-stretch:normal;font-size:14px;font-family:'DejaVu Sans';writing-mode:lr-tb;fill:#000000;fill-opacity:1;fill-rule:nonzero;stroke:none"
         x="-34.411999 -25.507999 -17.219999 -8.316"
         y="-77.517998"
         sodipodi:role="line"
         id="tspan139">5x10</tspan></text>
    <text
       id="text139"
       xml:space="preserve"
       transform="matrix(1.3333333,0,0,1.3333333,132.0612,841.43636)"><tspan
         style="font-variant:normal;font-weight:normal;font-stretch:normal;font-size:8.162px;font-family:'DejaVu Sans';writing-mode:lr-tb;fill:#000000;fill-opacity:1;fill-rule:nonzero;stroke:none"
         x="0"
         y="0"
         id="tspan140">3</tspan></text>
    <text
       id="text140"
       xml:space="preserve"
       transform="matrix(1.3333333,0,0,1.3333333,85.385467,741.65116)"><tspan
         style="font-variant:normal;font-weight:normal;font-stretch:normal;font-size:14px;font-family:'DejaVu Sans';writing-mode:lr-tb;fill:#000000;fill-opacity:1;fill-rule:nonzero;stroke:none"
         x="0 8.9040003 17.191999 26.096001"
         y="0"
         sodipodi:role="line"
         id="tspan141">1x10</tspan></text>
    <text
       id="text141"
       xml:space="preserve"
       transform="matrix(1.3333333,0,0,1.3333333,132.0612,735.43503)"><tspan
         style="font-variant:normal;font-weight:normal;font-stretch:normal;font-size:8.162px;font-family:'DejaVu Sans';writing-mode:lr-tb;fill:#000000;fill-opacity:1;fill-rule:nonzero;stroke:none"
         x="0"
         y="0"
         id="tspan142">4</tspan></text>
    <text
       id="text142"
       xml:space="preserve"
       transform="matrix(1.3333333,0,0,1.3333333,201.17453,555.14209)"><tspan
         style="font-variant:normal;font-weight:normal;font-stretch:normal;font-size:11px;font-family:'DejaVu Sans';writing-mode:lr-tb;fill:#000000;fill-opacity:1;fill-rule:nonzero;stroke:none"
         x="0 7.678 14.41 21.384001 27.236 34.000999 40.974998 45.286999 49.807999 56.550999 60.862999 63.789001 70.521004 77.495003"
         y="0"
         sodipodi:role="line"
         id="tspan143">Concentrations</tspan><tspan
         style="font-variant:normal;font-weight:normal;font-stretch:normal;font-size:11px;font-family:'DejaVu Sans';writing-mode:lr-tb;fill:#000000;fill-opacity:1;fill-rule:nonzero;stroke:none"
         x="15.785 25.278 32.042999 39.028 41.888 48.631001 52.129002 56.418999 63.393002 70.157997 76.945 83.688004 88 91.057999 97.404999 104.17"
         y="15.367"
         sodipodi:role="line"
         id="tspan144">Media (negative)</tspan><tspan
         style="font-variant:normal;font-weight:normal;font-stretch:normal;font-size:11px;font-family:'DejaVu Sans';writing-mode:lr-tb;fill:#000000;fill-opacity:1;fill-rule:nonzero;stroke:none"
         x="15.675 22.671"
         y="28.566999"
         sodipodi:role="line"
         id="tspan145">1e</tspan></text>
    <text
       id="text145"
       xml:space="preserve"
       transform="matrix(1.3333333,0,0,1.3333333,240.39,587.36023)"><tspan
         style="font-variant:normal;font-weight:normal;font-stretch:normal;font-size:7.15px;font-family:'DejaVu Sans';writing-mode:lr-tb;fill:#000000;fill-opacity:1;fill-rule:nonzero;stroke:none"
         x="0 3.9396501"
         y="0"
         sodipodi:role="line"
         id="tspan146">-6</tspan></text>
    <text
       id="text146"
       xml:space="preserve"
       transform="matrix(1.3333333,0,0,1.3333333,256.38933,593.22676)"><tspan
         style="font-variant:normal;font-weight:normal;font-stretch:normal;font-size:11px;font-family:'DejaVu Sans';writing-mode:lr-tb;fill:#000000;fill-opacity:1;fill-rule:nonzero;stroke:none"
         x="0"
         y="0"
         id="tspan147">M</tspan><tspan
         style="font-variant:normal;font-weight:normal;font-stretch:normal;font-size:11px;font-family:'DejaVu Sans';writing-mode:lr-tb;fill:#000000;fill-opacity:1;fill-rule:nonzero;stroke:none"
         x="-25.761999 -18.766001"
         y="14.872"
         sodipodi:role="line"
         id="tspan148">1e</tspan></text>
    <text
       id="text148"
       xml:space="preserve"
       transform="matrix(1.3333333,0,0,1.3333333,240.39,607.19223)"><tspan
         style="font-variant:normal;font-weight:normal;font-stretch:normal;font-size:7.15px;font-family:'DejaVu Sans';writing-mode:lr-tb;fill:#000000;fill-opacity:1;fill-rule:nonzero;stroke:none"
         x="0 3.9396501"
         y="0"
         sodipodi:role="line"
         id="tspan149">-5</tspan></text>
    <text
       id="text149"
       xml:space="preserve"
       transform="matrix(1.3333333,0,0,1.3333333,256.38933,613.05876)"><tspan
         style="font-variant:normal;font-weight:normal;font-stretch:normal;font-size:11px;font-family:'DejaVu Sans';writing-mode:lr-tb;fill:#000000;fill-opacity:1;fill-rule:nonzero;stroke:none"
         x="0"
         y="0"
         id="tspan150">M</tspan><tspan
         style="font-variant:normal;font-weight:normal;font-stretch:normal;font-size:11px;font-family:'DejaVu Sans';writing-mode:lr-tb;fill:#000000;fill-opacity:1;fill-rule:nonzero;stroke:none"
         x="-25.761999 -18.766001"
         y="14.905"
         sodipodi:role="line"
         id="tspan151">1e</tspan></text>
    <text
       id="text151"
       xml:space="preserve"
       transform="matrix(1.3333333,0,0,1.3333333,240.39,627.06529)"><tspan
         style="font-variant:normal;font-weight:normal;font-stretch:normal;font-size:7.15px;font-family:'DejaVu Sans';writing-mode:lr-tb;fill:#000000;fill-opacity:1;fill-rule:nonzero;stroke:none"
         x="0 3.9396501"
         y="0"
         sodipodi:role="line"
         id="tspan152">-4</tspan></text>
    <text
       id="text152"
       xml:space="preserve"
       transform="matrix(1.3333333,0,0,1.3333333,256.38933,632.93116)"><tspan
         style="font-variant:normal;font-weight:normal;font-stretch:normal;font-size:11px;font-family:'DejaVu Sans';writing-mode:lr-tb;fill:#000000;fill-opacity:1;fill-rule:nonzero;stroke:none"
         x="0"
         y="0"
         id="tspan153">M</tspan></text>
    <path
       id="path153"
       d="m 148.984,419.952 h 13.941 v -12.273 h -13.941 z"
       style="fill:#4793af;fill-opacity:1;fill-rule:nonzero;stroke:none"
       transform="matrix(1.3333333,0,0,-1.3333333,0,1122.5197)" />
    <path
       id="path154"
       d="m 148.984,406.581 h 13.941 v -12.273 h -13.941 z"
       style="fill:#ffc470;fill-opacity:1;fill-rule:nonzero;stroke:none"
       transform="matrix(1.3333333,0,0,-1.3333333,0,1122.5197)" />
    <path
       id="path155"
       d="m 148.984,393.21 h 13.941 v -12.273 h -13.941 z"
       style="fill:#dd5746;fill-opacity:1;fill-rule:nonzero;stroke:none"
       transform="matrix(1.3333333,0,0,-1.3333333,0,1122.5197)" />
    <path
       id="path156"
       d="m 148.984,379.839 h 13.941 v -12.273 h -13.941 z"
       style="fill:#8b322c;fill-opacity:1;fill-rule:nonzero;stroke:none"
       transform="matrix(1.3333333,0,0,-1.3333333,0,1122.5197)" />
    <text
       id="text156"
       xml:space="preserve"
       transform="matrix(1.3333333,0,0,1.3333333,115.0312,55.078228)"><tspan
         style="font-variant:normal;font-weight:normal;font-stretch:normal;font-size:29.9999px;font-family:'DejaVu Sans';writing-mode:lr-tb;fill:#000000;fill-opacity:1;fill-rule:nonzero;stroke:none"
         x="0"
         y="0"
         id="tspan156">A</tspan><tspan
         style="font-variant:normal;font-weight:normal;font-stretch:normal;font-size:29.9999px;font-family:'DejaVu Sans';writing-mode:lr-tb;fill:#000000;fill-opacity:1;fill-rule:nonzero;stroke:none"
         x="3.929987"
         y="340.19888"
         id="tspan157">B</tspan></text>
    <path
       id="path157"
       d="m 524.113,795.777 h 30.979 V 121.836 h -30.979 z"
       style="fill:#ffffff;fill-opacity:1;fill-rule:nonzero;stroke:none"
       transform="matrix(1.3333333,0,0,-1.3333333,0,1122.5197)" />
    <path
       id="path158"
       d="M 0,0 V 1.387"
       style="fill:none;stroke:#333333;stroke-width:0.575;stroke-linecap:butt;stroke-linejoin:round;stroke-miterlimit:10;stroke-dasharray:none;stroke-opacity:1"
       transform="matrix(1.3333333,0,0,-1.3333333,554.14587,952.17729)" />
    <path
       id="path159"
       d="M 0,0 V 1.391"
       style="fill:none;stroke:#333333;stroke-width:0.575;stroke-linecap:butt;stroke-linejoin:round;stroke-miterlimit:10;stroke-dasharray:none;stroke-opacity:1"
       transform="matrix(1.3333333,0,0,-1.3333333,301.36387,953.02103)" />
    <text
       id="text159"
       xml:space="preserve"
       transform="matrix(1.3333333,0,0,1.3333333,67.575467,635.49623)"><tspan
         style="font-variant:normal;font-weight:normal;font-stretch:normal;font-size:14px;font-family:'DejaVu Sans';writing-mode:lr-tb;fill:#000000;fill-opacity:1;fill-rule:nonzero;stroke:none"
         x="0 8.9040003 13.356 22.26 30.548 39.452"
         y="0"
         sodipodi:role="line"
         id="tspan159">1.5x10</tspan></text>
    <text
       id="text160"
       xml:space="preserve"
       transform="matrix(1.3333333,0,0,1.3333333,132.0612,629.28009)"><tspan
         style="font-variant:normal;font-weight:normal;font-stretch:normal;font-size:8.162px;font-family:'DejaVu Sans';writing-mode:lr-tb;fill:#000000;fill-opacity:1;fill-rule:nonzero;stroke:none"
         x="0"
         y="0"
         id="tspan160">4</tspan></text>
    <path
       id="path160"
       d="M 7.4057125,-1.277446 C 6.913525,-1.0313523 6.163525,-0.8790085 5.413525,-0.8790085 c -2.296875,0 -3.6210938,-1.4882813 -3.6210938,-3.796875 0,-2.484375 1.4648438,-3.890625 3.6796875,-3.890625 0.7851563,0 1.4414063,0.1640625 1.9101563,0.3867187 l 0.2929687,-0.9960937 c -0.328125,-0.1640625 -1.0664062,-0.421875 -2.2382812,-0.421875 -2.9296875,0 -4.93359375,2.0039062 -4.93359375,4.9570312 0,3.1054688 2.00390625,4.78125005 4.66406245,4.78125005 1.1484375,0 2.0390625,-0.22265625 2.4960938,-0.4453125 z m 0,0"
       style="fill:#000000;fill-opacity:1;fill-rule:nonzero;stroke:none"
       aria-label="C"
       transform="matrix(1.3333333,0,0,1.3333333,358.46947,482.39076)" />
    <path
       id="path161"
       d="m 3.8899078,-6.9376023 c -1.875,0 -3.36328124,1.3359375 -3.36328124,3.609375 0,2.1328125 1.41796874,3.4804688 3.25781254,3.4804688 1.6289062,0 3.375,-1.08984375 3.375,-3.5976563 0,-2.0742187 -1.3242188,-3.4921875 -3.2695313,-3.4921875 z m -0.023437,0.9257813 c 1.453125,0 2.0273438,1.4648437 2.0273438,2.6132812 0,1.5234375 -0.8789063,2.62500005 -2.0625,2.62500005 -1.1953125,0 -2.0507813,-1.11328125 -2.0507813,-2.60156255 0,-1.2890625 0.6328125,-2.6367187 2.0859375,-2.6367187 z M 8.7063141,-1.0225e-4 H 9.9367828 V -4.0782273 c 0,-0.2109375 0.035156,-0.421875 0.09375,-0.5742187 0.199219,-0.6796875 0.832031,-1.2539063 1.652344,-1.2539063 1.160156,0 1.558593,0.9023438 1.558593,2.0039063 v 3.90234375 h 1.242188 V -4.043071 c 0,-2.3320313 -1.464844,-2.8945313 -2.402344,-2.8945313 -1.113281,0 -1.898437,0.6328125 -2.2382814,1.2773438 H 9.8195953 L 9.7492828,-6.7735398 H 8.6477203 c 0.046875,0.5507813 0.058594,1.125 0.058594,1.828125 z M 21.104752,-1.1719773 c -0.351563,0.1523438 -0.820313,0.32812505 -1.511719,0.32812505 -1.347656,0 -2.355469,-0.96093755 -2.355469,-2.53125005 0,-1.4179687 0.832031,-2.5664062 2.390625,-2.5664062 0.667969,0 1.136719,0.1523437 1.429688,0.328125 l 0.28125,-0.9492188 c -0.339844,-0.1757812 -0.984375,-0.3515625 -1.710938,-0.3515625 -2.214844,0 -3.644531,1.5117188 -3.644531,3.5976563 0,2.0742187 1.335937,3.45703125 3.375,3.45703125 0.914062,0 1.628906,-0.22265625 1.957031,-0.3984375 z m 7.007812,-1.9921875 c 0.01172,-0.1289062 0.04687,-0.328125 0.04687,-0.5742187 0,-1.2421875 -0.597656,-3.1992188 -2.800781,-3.1992188 -1.980469,0 -3.1875,1.6171875 -3.1875,3.65625 0,2.0507813 1.253906,3.42187505 3.339844,3.42187505 1.078125,0 1.816406,-0.22265625 2.25,-0.421875 L 27.550064,-1.1602585 c -0.457031,0.19921875 -0.996094,0.3515625 -1.875,0.3515625 -1.230469,0 -2.296875,-0.6914063 -2.320312,-2.3554688 z M 23.36647,-4.043071 c 0.09375,-0.8554688 0.644532,-2.0039063 1.886719,-2.0039063 1.394531,0 1.722656,1.21875 1.710938,2.0039063 z m 6.310547,4.04296875 h 1.230469 V -4.0782273 c 0,-0.2109375 0.03516,-0.421875 0.09375,-0.5742187 0.199219,-0.6796875 0.832031,-1.2539063 1.652344,-1.2539063 1.160156,0 1.558593,0.9023438 1.558593,2.0039063 v 3.90234375 h 1.242188 V -4.043071 c 0,-2.3320313 -1.464844,-2.8945313 -2.402344,-2.8945313 -1.113281,0 -1.898437,0.6328125 -2.238281,1.2773438 h -0.02344 l -0.07031,-1.1132813 h -1.101563 c 0.04687,0.5507813 0.05859,1.125 0.05859,1.828125 z M 37.672134,-8.402446 v 1.6289062 h -1.042968 v 0.9375 h 1.042968 v 3.6914063 c 0,0.796875 0.128907,1.40625 0.480469,1.76953125 0.292969,0.328125 0.75,0.515625 1.324219,0.515625 0.480469,0 0.855469,-0.0703125 1.101562,-0.1640625 L 40.519791,-0.949321 c -0.152344,0.0351563 -0.398438,0.0820313 -0.714844,0.0820313 -0.691406,0 -0.925781,-0.4804687 -0.925781,-1.3125 v -3.65625 h 1.757812 v -0.9375 H 38.879166 V -8.7188523 Z M 42.02565,-1.0225e-4 H 43.2444 V -3.6094773 c 0,-0.2109375 0.03516,-0.4101562 0.05859,-0.5742187 0.164062,-0.9257813 0.785156,-1.5820313 1.652344,-1.5820313 0.164062,0 0.292968,0.011719 0.421875,0.035156 v -1.1601563 c -0.117188,-0.023437 -0.210938,-0.046875 -0.351563,-0.046875 -0.832031,0 -1.570312,0.5742188 -1.875,1.4882813 h -0.05859 l -0.04687,-1.3242188 h -1.078125 c 0.04687,0.6210938 0.05859,1.3125 0.05859,2.109375 z m 9.383789,0 C 51.327408,-0.4571335 51.30397,-1.0313523 51.30397,-1.6290085 v -2.53125 c 0,-1.359375 -0.503906,-2.7773438 -2.578125,-2.7773438 -0.855468,0 -1.675781,0.2460938 -2.226562,0.609375 l 0.28125,0.8085938 c 0.46875,-0.3046875 1.125,-0.5039063 1.757812,-0.5039063 1.382813,0 1.546875,1.0078125 1.546875,1.5703125 v 0.140625 c -2.625,-0.011719 -4.078125,0.8789063 -4.078125,2.5195313 0,0.984375 0.703125,1.9453125 2.074219,1.9453125 0.960938,0 1.6875,-0.46875 2.074219,-1.0078125 h 0.03516 l 0.09375,0.85546875 z M 50.108658,-2.2852585 c 0,0.1289062 -0.02344,0.2695312 -0.07031,0.3984375 -0.199218,0.5742187 -0.761718,1.125 -1.640625,1.125 -0.632812,0 -1.160156,-0.375 -1.160156,-1.171875 0,-1.3125 1.523438,-1.5585938 2.871094,-1.5234375 z m 3.398437,-6.1171875 v 1.6289062 h -1.042968 v 0.9375 h 1.042968 v 3.6914063 c 0,0.796875 0.128907,1.40625 0.480469,1.76953125 0.292969,0.328125 0.75,0.515625 1.324219,0.515625 0.480469,0 0.855469,-0.0703125 1.101562,-0.1640625 L 56.354752,-0.949321 c -0.152344,0.0351563 -0.398438,0.0820313 -0.714844,0.0820313 -0.691406,0 -0.925781,-0.4804687 -0.925781,-1.3125 v -3.65625 h 1.757812 v -0.9375 H 54.714127 V -8.7188523 Z M 59.09108,-1.0225e-4 V -6.7735398 H 57.860611 V -1.0225e-4 Z M 58.481705,-9.4571335 c -0.445313,0 -0.773438,0.3398437 -0.773438,0.7734375 0,0.421875 0.304688,0.7617187 0.738281,0.7617187 0.492188,0 0.808594,-0.3398437 0.785157,-0.7617187 0,-0.4335938 -0.292969,-0.7734375 -0.75,-0.7734375 z m 5.52539,2.5195312 c -1.875,0 -3.363281,1.3359375 -3.363281,3.609375 0,2.1328125 1.417969,3.4804688 3.257813,3.4804688 1.628906,0 3.375,-1.08984375 3.375,-3.5976563 0,-2.0742187 -1.324219,-3.4921875 -3.269532,-3.4921875 z m -0.02344,0.9257813 c 1.453125,0 2.027344,1.4648437 2.027344,2.6132812 0,1.5234375 -0.878907,2.62500005 -2.0625,2.62500005 -1.195313,0 -2.050782,-1.11328125 -2.050782,-2.60156255 0,-1.2890625 0.632813,-2.6367187 2.085938,-2.6367187 z m 4.839844,6.01171875 H 70.05397 V -4.0782273 c 0,-0.2109375 0.03516,-0.421875 0.09375,-0.5742187 0.199219,-0.6796875 0.832032,-1.2539063 1.652344,-1.2539063 1.160156,0 1.558594,0.9023438 1.558594,2.0039063 v 3.90234375 h 1.242187 V -4.043071 c 0,-2.3320313 -1.464843,-2.8945313 -2.402343,-2.8945313 -1.113282,0 -1.898438,0.6328125 -2.238282,1.2773438 h -0.02344 l -0.07031,-1.1132813 h -1.101562 c 0.04687,0.5507813 0.05859,1.125 0.05859,1.828125 z M 81.271744,-9.714946 c -0.878906,1.171875 -1.816406,2.9648437 -1.839844,5.71875 0,2.7304687 0.960938,4.5234375 1.839844,5.6953125 h 0.960937 c -0.984375,-1.40625 -1.757812,-3.1992188 -1.757812,-5.6953125 0,-2.53125 0.738281,-4.3476563 1.757812,-5.71875 z m 10.502929,9.71484375 h 1.183594 L 92.37233,-9.433696 h -1.546875 l -1.6875,4.5585937 c -0.421875,1.1953125 -0.75,2.2265625 -0.996094,3.1757813 h -0.03516 c -0.246094,-0.9726563 -0.5625,-2.015625 -0.949219,-3.1757813 L 85.540298,-9.433696 h -1.558593 l -0.65625,9.43359375 h 1.160156 L 84.743423,-4.043071 c 0.08203,-1.4179688 0.152344,-3 0.1875,-4.171875 h 0.02344 c 0.269531,1.1132812 0.644531,2.3320312 1.089844,3.6679687 l 1.523437,4.4882813 h 0.925781 l 1.664063,-4.5820313 c 0.480469,-1.3007812 0.878906,-2.4726562 1.195312,-3.5742187 h 0.04687 c -0.02344,1.171875 0.07031,2.7539062 0.140625,4.0664062 z m 3.228516,1.69921875 c 0.902344,-1.1953125 1.839844,-2.9765625 1.839844,-5.71875 0,-2.7539063 -0.9375,-4.546875 -1.839844,-5.6953125 H 94.05397 c 1.007813,1.3828125 1.757813,3.1757812 1.757813,5.6835937 0,2.5195313 -0.761719,4.33593755 -1.757813,5.7304688 z M -0.5602875,388.56728 c -0.4921875,0.24609 -1.2421875,0.39844 -1.9921875,0.39844 -2.296875,0 -3.6210938,-1.48828 -3.6210938,-3.79688 0,-2.48437 1.4648438,-3.89062 3.6796875,-3.89062 0.7851563,0 1.4414063,0.16406 1.9101563,0.38672 l 0.29296875,-0.9961 c -0.328125,-0.16406 -1.06640625,-0.42187 -2.23828125,-0.42187 -2.9296875,0 -4.9335938,2.0039 -4.9335938,4.95703 0,3.10547 2.0039063,4.78125 4.6640625,4.78125 1.1484375,0 2.03906255,-0.22266 2.4960938,-0.44531 z m 4.4501953,-5.66016 c -1.875,0 -3.36328124,1.33594 -3.36328124,3.60938 0,2.13281 1.41796874,3.48047 3.25781254,3.48047 1.6289062,0 3.375,-1.08985 3.375,-3.59766 0,-2.07422 -1.3242188,-3.49219 -3.2695313,-3.49219 z m -0.023437,0.92579 c 1.453125,0 2.0273438,1.46484 2.0273438,2.61328 0,1.52343 -0.8789063,2.625 -2.0625,2.625 -1.1953125,0 -2.0507813,-1.11328 -2.0507813,-2.60157 0,-1.28906 0.6328125,-2.63671 2.0859375,-2.63671 z m 4.8398438,6.01171 h 1.2304687 v -4.07812 c 0,-0.21094 0.035156,-0.42188 0.09375,-0.57422 0.199219,-0.67969 0.832031,-1.25391 1.652344,-1.25391 1.160156,0 1.558593,0.90235 1.558593,2.00391 v 3.90234 h 1.242188 v -4.04296 c 0,-2.33204 -1.464844,-2.89454 -2.402344,-2.89454 -1.113281,0 -1.898437,0.63282 -2.2382809,1.27735 h -0.023437 l -0.070312,-1.11328 H 8.6477203 c 0.046875,0.55078 0.058594,1.125 0.058594,1.82812 z m 12.3984374,-1.17187 c -0.351563,0.15234 -0.820313,0.32812 -1.511719,0.32812 -1.347656,0 -2.355469,-0.96093 -2.355469,-2.53125 0,-1.41796 0.832031,-2.5664 2.390625,-2.5664 0.667969,0 1.136719,0.15234 1.429688,0.32812 l 0.28125,-0.94922 c -0.339844,-0.17578 -0.984375,-0.35156 -1.710938,-0.35156 -2.214844,0 -3.644531,1.51172 -3.644531,3.59766 0,2.07422 1.335937,3.45703 3.375,3.45703 0.914062,0 1.628906,-0.22266 1.957031,-0.39844 z m 7.007812,-1.99219 c 0.01172,-0.1289 0.04687,-0.32812 0.04687,-0.57422 0,-1.24218 -0.597656,-3.19922 -2.800781,-3.19922 -1.980469,0 -3.1875,1.61719 -3.1875,3.65625 0,2.05079 1.253906,3.42188 3.339844,3.42188 1.078125,0 1.816406,-0.22266 2.25,-0.42188 l -0.210938,-0.8789 c -0.457031,0.19922 -0.996094,0.35156 -1.875,0.35156 -1.230469,0 -2.296875,-0.69141 -2.320312,-2.35547 z m -4.746094,-0.8789 c 0.09375,-0.85547 0.644532,-2.00391 1.886719,-2.00391 1.394531,0 1.722656,1.21875 1.710938,2.00391 z m 6.310547,4.04296 h 1.230469 v -4.07812 c 0,-0.21094 0.03516,-0.42188 0.09375,-0.57422 0.199219,-0.67969 0.832031,-1.25391 1.652344,-1.25391 1.160156,0 1.558593,0.90235 1.558593,2.00391 v 3.90234 h 1.242188 v -4.04296 c 0,-2.33204 -1.464844,-2.89454 -2.402344,-2.89454 -1.113281,0 -1.898437,0.63282 -2.238281,1.27735 h -0.02344 l -0.07031,-1.11328 h -1.101563 c 0.04687,0.55078 0.05859,1.125 0.05859,1.82812 z m 7.995117,-8.40234 v 1.62891 h -1.042968 v 0.9375 h 1.042968 v 3.6914 c 0,0.79688 0.128907,1.40625 0.480469,1.76953 0.292969,0.32813 0.75,0.51563 1.324219,0.51563 0.480469,0 0.855469,-0.0703 1.101562,-0.16406 l -0.05859,-0.92578 c -0.152344,0.0351 -0.398438,0.082 -0.714844,0.082 -0.691406,0 -0.925781,-0.48047 -0.925781,-1.3125 v -3.65625 h 1.757812 v -0.9375 h -1.757812 v -1.94532 z m 4.353516,8.40234 h 1.21875 v -3.60937 c 0,-0.21094 0.03516,-0.41016 0.05859,-0.57422 0.164062,-0.92578 0.785156,-1.58203 1.652344,-1.58203 0.164062,0 0.292968,0.0117 0.421875,0.0352 v -1.1602 c -0.117188,-0.0234 -0.210938,-0.0469 -0.351563,-0.0469 -0.832031,0 -1.570312,0.57422 -1.875,1.48829 h -0.05859 l -0.04687,-1.32422 h -1.078125 c 0.04687,0.62109 0.05859,1.3125 0.05859,2.10937 z m 9.383789,0 c -0.08203,-0.45703 -0.105469,-1.03125 -0.105469,-1.6289 v -2.53125 c 0,-1.35938 -0.503906,-2.77735 -2.578125,-2.77735 -0.855468,0 -1.675781,0.2461 -2.226562,0.60938 l 0.28125,0.80859 c 0.46875,-0.30468 1.125,-0.5039 1.757812,-0.5039 1.382813,0 1.546875,1.00781 1.546875,1.57031 v 0.14062 c -2.625,-0.0117 -4.078125,0.87891 -4.078125,2.51954 0,0.98437 0.703125,1.94531 2.074219,1.94531 0.960938,0 1.6875,-0.46875 2.074219,-1.00781 h 0.03516 l 0.09375,0.85546 z m -1.300781,-2.28515 c 0,0.1289 -0.02344,0.26953 -0.07031,0.39844 -0.199218,0.57421 -0.761718,1.125 -1.640625,1.125 -0.632812,0 -1.160156,-0.375 -1.160156,-1.17188 0,-1.3125 1.523438,-1.55859 2.871094,-1.52344 z m 3.398437,-6.11719 v 1.62891 h -1.042968 v 0.9375 h 1.042968 v 3.6914 c 0,0.79688 0.128907,1.40625 0.480469,1.76953 0.292969,0.32813 0.75,0.51563 1.324219,0.51563 0.480469,0 0.855469,-0.0703 1.101562,-0.16406 l -0.05859,-0.92578 c -0.152344,0.0351 -0.398438,0.082 -0.714844,0.082 -0.691406,0 -0.925781,-0.48047 -0.925781,-1.3125 v -3.65625 h 1.757812 v -0.9375 H 54.71413 v -1.94532 z m 5.583985,8.40234 v -6.77343 h -1.230469 v 6.77343 z m -0.609375,-9.45703 c -0.445313,0 -0.773438,0.33985 -0.773438,0.77344 0,0.42188 0.304688,0.76172 0.738281,0.76172 0.492188,0 0.808594,-0.33984 0.785157,-0.76172 0,-0.43359 -0.292969,-0.77344 -0.75,-0.77344 z m 5.52539,2.51953 c -1.875,0 -3.363281,1.33594 -3.363281,3.60938 0,2.13281 1.417969,3.48047 3.257813,3.48047 1.628906,0 3.375,-1.08985 3.375,-3.59766 0,-2.07422 -1.324219,-3.49219 -3.269532,-3.49219 z m -0.02344,0.92579 c 1.453125,0 2.027344,1.46484 2.027344,2.61328 0,1.52343 -0.878907,2.625 -2.0625,2.625 -1.195313,0 -2.050782,-1.11328 -2.050782,-2.60157 0,-1.28906 0.632813,-2.63671 2.085938,-2.63671 z m 4.839844,6.01171 h 1.230468 v -4.07812 c 0,-0.21094 0.03516,-0.42188 0.09375,-0.57422 0.199219,-0.67969 0.832032,-1.25391 1.652344,-1.25391 1.160156,0 1.558594,0.90235 1.558594,2.00391 v 3.90234 h 1.242187 v -4.04296 c 0,-2.33204 -1.464843,-2.89454 -2.402343,-2.89454 -1.113282,0 -1.898438,0.63282 -2.238282,1.27735 h -0.02344 l -0.07031,-1.11328 h -1.101562 c 0.04687,0.55078 0.05859,1.125 0.05859,1.82812 z m 12.448242,-9.71484 c -0.878906,1.17188 -1.816406,2.96484 -1.839844,5.71875 0,2.73047 0.960938,4.52344 1.839844,5.69531 h 0.960937 c -0.984375,-1.40625 -1.757812,-3.19922 -1.757812,-5.69531 0,-2.53125 0.738281,-4.34766 1.757812,-5.71875 z m 10.502929,9.71484 h 1.183594 l -0.585937,-9.43359 h -1.546875 l -1.6875,4.55859 c -0.421875,1.19532 -0.75,2.22657 -0.996094,3.17579 h -0.03516 c -0.246094,-0.97266 -0.5625,-2.01563 -0.949219,-3.17579 l -1.617188,-4.55859 h -1.558593 l -0.65625,9.43359 h 1.160156 l 0.257812,-4.04296 c 0.08203,-1.41797 0.152344,-3 0.1875,-4.17188 h 0.02344 c 0.269531,1.11328 0.644531,2.33203 1.089844,3.66797 l 1.523437,4.48828 h 0.925781 l 1.664063,-4.58203 c 0.480469,-1.30078 0.878906,-2.47266 1.195312,-3.57422 h 0.04687 c -0.02344,1.17188 0.07031,2.75391 0.140625,4.06641 z m 3.228516,1.69922 c 0.902344,-1.19531 1.839844,-2.97656 1.839844,-5.71875 0,-2.7539 -0.9375,-4.54687 -1.839844,-5.69531 H 94.05397 c 1.007813,1.38281 1.757813,3.17578 1.757813,5.68359 0,2.51954 -0.761719,4.33594 -1.757813,5.73047 z m 0,0"
       style="fill:#000000;fill-opacity:1;fill-rule:nonzero;stroke:none"
       aria-label="oncentration (M)&#10;Concentration (M)"
       transform="matrix(1.3333333,0,0,1.3333333,369.0908,482.39076)" />
    <path
       id="path162"
       d="M 0,0 H 87.07 Z"
       style="fill:#000000;fill-opacity:1;fill-rule:nonzero;stroke:none"
       transform="matrix(1.3333333,0,0,-1.3333333,193.5804,369.14289)" />
    <path
       id="path163"
       d="M 0,0 H -87.07 Z"
       style="fill:none;stroke:#000000;stroke-width:1;stroke-linecap:butt;stroke-linejoin:miter;stroke-miterlimit:10;stroke-dasharray:none;stroke-opacity:1"
       transform="matrix(1.3333333,0,0,-1.3333333,309.67387,369.14343)" />
    <path
       id="path164"
       d="M 0,0 V 6.968 Z"
       style="fill:#000000;fill-opacity:1;fill-rule:nonzero;stroke:none"
       transform="matrix(1.3333333,0,0,-1.3333333,193.5804,378.43329)" />
    <path
       id="path165"
       d="M 0,0 V -6.968"
       style="fill:none;stroke:#000000;stroke-width:1;stroke-linecap:butt;stroke-linejoin:miter;stroke-miterlimit:10;stroke-dasharray:none;stroke-opacity:1"
       transform="matrix(1.3333333,0,0,-1.3333333,193.58067,369.14343)" />
    <path
       id="path166"
       d="M 0,0 V 6.968 Z"
       style="fill:#000000;fill-opacity:1;fill-rule:nonzero;stroke:none"
       transform="matrix(1.3333333,0,0,-1.3333333,309.6744,378.43329)" />
    <path
       id="path167"
       d="M 0,0 V -6.968"
       style="fill:none;stroke:#000000;stroke-width:1;stroke-linecap:butt;stroke-linejoin:miter;stroke-miterlimit:10;stroke-dasharray:none;stroke-opacity:1"
       transform="matrix(1.3333333,0,0,-1.3333333,309.67387,369.14343)" />
    <path
       id="path168"
       d="M 0,0 H 87.07 Z"
       style="fill:#000000;fill-opacity:1;fill-rule:nonzero;stroke:none"
       transform="matrix(1.3333333,0,0,-1.3333333,364.8084,369.14289)" />
    <path
       id="path169"
       d="M 0,0 H -87.07 Z"
       style="fill:none;stroke:#000000;stroke-width:1;stroke-linecap:butt;stroke-linejoin:miter;stroke-miterlimit:10;stroke-dasharray:none;stroke-opacity:1"
       transform="matrix(1.3333333,0,0,-1.3333333,480.90107,369.14343)" />
    <path
       id="path170"
       d="M 0,0 V 6.968 Z"
       style="fill:#000000;fill-opacity:1;fill-rule:nonzero;stroke:none"
       transform="matrix(1.3333333,0,0,-1.3333333,364.8084,378.43329)" />
    <path
       id="path171"
       d="M 0,0 V -6.968"
       style="fill:none;stroke:#000000;stroke-width:1;stroke-linecap:butt;stroke-linejoin:miter;stroke-miterlimit:10;stroke-dasharray:none;stroke-opacity:1"
       transform="matrix(1.3333333,0,0,-1.3333333,364.808,369.14343)" />
    <path
       id="path172"
       d="M 0,0 V 6.968 Z"
       style="fill:#000000;fill-opacity:1;fill-rule:nonzero;stroke:none"
       transform="matrix(1.3333333,0,0,-1.3333333,480.9012,378.43329)" />
    <path
       id="path173"
       d="M 0,0 V -6.968"
       style="fill:none;stroke:#000000;stroke-width:1;stroke-linecap:butt;stroke-linejoin:miter;stroke-miterlimit:10;stroke-dasharray:none;stroke-opacity:1"
       transform="matrix(1.3333333,0,0,-1.3333333,480.90107,369.14343)" />
    <path
       id="path174"
       d="M 2.2138469,8.274375e-4 V -4.0304226 c 0,-1.5703125 -0.035156,-2.7070312 -0.1054688,-3.890625 l 0.046875,-0.023437 c 0.4804688,1.03125 1.1015625,2.109375 1.7695313,3.1523438 L 6.9130656,8.274375e-4 H 8.1435344 V -9.4327663 H 7.0068156 v 3.9492187 c 0,1.4648438 0.023437,2.6132813 0.1289063,3.8789063 l -0.023437,0.011719 C 6.6669719,-2.5655788 6.1161906,-3.5616726 5.4130656,-4.6632351 L 2.3896281,-9.4327663 H 1.0654094 V 8.274375e-4 Z M 10.771464,0.15317119 c 0.515625,0 0.832031,-0.375 0.832031,-0.87890625 0,-0.51562504 -0.328125,-0.87890624 -0.820312,-0.87890624 -0.492188,0 -0.8437502,0.3632812 -0.8437502,0.87890624 0,0.50390625 0.3398442,0.87890625 0.8320312,0.87890625 z m 1.924805,-0.609375 c 0.503906,0.328125 1.5,0.59765625 2.414062,0.59765625 2.226563,0 3.304688,-1.26562504 3.304688,-2.71875004 0,-1.3828125 -0.820313,-2.15625 -2.414063,-2.765625 -1.300781,-0.515625 -1.875,-0.9492187 -1.875,-1.828125 0,-0.6445312 0.492188,-1.4179687 1.78125,-1.4179687 0.855469,0 1.488282,0.28125 1.792969,0.4570312 L 18.0283,-9.1280788 c -0.410156,-0.234375 -1.113281,-0.46875 -2.085937,-0.46875 -1.828125,0 -3.046875,1.1015625 -3.046875,2.5664062 0,1.3359375 0.949218,2.1328125 2.496093,2.671875 1.265625,0.4921875 1.769532,0.9960938 1.769532,1.875 0,0.9609375 -0.726563,1.61718754 -1.96875,1.61718754 -0.84375,0 -1.640625,-0.28125004 -2.191407,-0.62109374 z m 7.875,0.609375 c 0.515625,0 0.832031,-0.375 0.832031,-0.87890625 0,-0.51562504 -0.328125,-0.87890624 -0.820312,-0.87890624 -0.492188,0 -0.84375,0.3632812 -0.84375,0.87890624 0,0.50390625 0.339843,0.87890625 0.832031,0.87890625 z M 134.40428,8.274375e-4 V -4.0304226 c 0,-1.5703125 -0.0352,-2.7070312 -0.10547,-3.890625 l 0.0469,-0.023437 c 0.48047,1.03125 1.10157,2.109375 1.76953,3.1523438 l 2.98829,4.7929687375 h 1.23046 V -9.4327663 h -1.13671 v 3.9492187 c 0,1.4648438 0.0234,2.6132813 0.1289,3.8789063 l -0.0234,0.011719 c -0.44531,-0.9726562 -0.99609,-1.96875 -1.69921,-3.0703125 l -3.02344,-4.7695312 h -1.32422 V 8.274375e-4 Z m 8.55468,0.1523437525 c 0.51563,0 0.83204,-0.375 0.83204,-0.87890625 0,-0.51562504 -0.32813,-0.87890624 -0.82032,-0.87890624 -0.49218,0 -0.84375,0.3632812 -0.84375,0.87890624 0,0.50390625 0.33985,0.87890625 0.83203,0.87890625 z m 1.92481,-0.609375 c 0.50391,0.328125 1.5,0.59765625 2.41406,0.59765625 2.22656,0 3.30469,-1.26562504 3.30469,-2.71875004 0,-1.3828125 -0.82031,-2.15625 -2.41406,-2.765625 -1.30078,-0.515625 -1.875,-0.9492187 -1.875,-1.828125 0,-0.6445312 0.49218,-1.4179687 1.78125,-1.4179687 0.85547,0 1.48828,0.28125 1.79297,0.4570312 l 0.32812,-0.9960937 c -0.41016,-0.234375 -1.11328,-0.46875 -2.08594,-0.46875 -1.82812,0 -3.04687,1.1015625 -3.04687,2.5664062 0,1.3359375 0.94922,2.1328125 2.49609,2.671875 1.26563,0.4921875 1.76953,0.9960938 1.76953,1.875 0,0.9609375 -0.72656,1.61718754 -1.96875,1.61718754 -0.84375,0 -1.64062,-0.28125004 -2.1914,-0.62109374 z m 7.875,0.609375 c 0.51562,0 0.83203,-0.375 0.83203,-0.87890625 0,-0.51562504 -0.32812,-0.87890624 -0.82031,-0.87890624 -0.49219,0 -0.84375,0.3632812 -0.84375,0.87890624 0,0.50390625 0.33984,0.87890625 0.83203,0.87890625 z m 0,0"
       style="fill:#000000;fill-opacity:1;fill-rule:nonzero;stroke:none"
       aria-label="N.S.N.S."
       transform="matrix(1.3333333,0,0,1.3333333,241.46227,361.14343)" />
    <path
       id="path175"
       d="M 0,0 H 130.566 Z"
       style="fill:#000000;fill-opacity:1;fill-rule:nonzero;stroke:none"
       transform="matrix(1.3333333,0,0,-1.3333333,212.9292,880.28289)" />
    <path
       id="path176"
       d="M 0,0 H -130.565 Z"
       style="fill:none;stroke:#000000;stroke-width:1;stroke-linecap:butt;stroke-linejoin:miter;stroke-miterlimit:10;stroke-dasharray:none;stroke-opacity:1"
       transform="matrix(1.3333333,0,0,-1.3333333,387.01627,880.28276)" />
    <path
       id="path177"
       d="M 0,0 V 8.171 Z"
       style="fill:#000000;fill-opacity:1;fill-rule:nonzero;stroke:none"
       transform="matrix(1.3333333,0,0,-1.3333333,212.9292,891.17769)" />
    <path
       id="path178"
       d="M 0,0 V -8.171"
       style="fill:none;stroke:#000000;stroke-width:1;stroke-linecap:butt;stroke-linejoin:miter;stroke-miterlimit:10;stroke-dasharray:none;stroke-opacity:1"
       transform="matrix(1.3333333,0,0,-1.3333333,212.92973,880.28276)" />
    <path
       id="path179"
       d="M 0,0 V 8.171 Z"
       style="fill:#000000;fill-opacity:1;fill-rule:nonzero;stroke:none"
       transform="matrix(1.3333333,0,0,-1.3333333,387.0168,891.17769)" />
    <path
       id="path180"
       d="M 0,0 V -8.171"
       style="fill:none;stroke:#000000;stroke-width:1;stroke-linecap:butt;stroke-linejoin:miter;stroke-miterlimit:10;stroke-dasharray:none;stroke-opacity:1"
       transform="matrix(1.3333333,0,0,-1.3333333,387.01627,880.28276)" />
    <path
       id="path181"
       d="M 2.2153375,-0.00111631 V -4.0323663 c 0,-1.5703125 -0.035156,-2.7070313 -0.1054687,-3.890625 l 0.046875,-0.023437 c 0.4804687,1.03125 1.1015625,2.109375 1.7695312,3.1523437 l 2.9882813,4.79296879 H 8.145025 V -9.4347101 H 7.0083063 v 3.9492188 c 0,1.4648437 0.023437,2.6132812 0.1289062,3.8789062 l -0.023437,0.011719 C 6.6684625,-2.5675226 6.1176813,-3.5636163 5.4145563,-4.6651788 L 2.3911188,-9.4347101 H 1.0669 v 9.43359379 z m 8.5546875,0.15234375 c 0.515625,0 0.832031,-0.375 0.832031,-0.87890625 0,-0.51562499 -0.328125,-0.87890629 -0.820312,-0.87890629 -0.492188,0 -0.8437502,0.3632813 -0.8437502,0.87890629 0,0.50390625 0.3398442,0.87890625 0.8320312,0.87890625 z m 1.924805,-0.609375 c 0.503906,0.328125 1.5,0.59765625 2.414062,0.59765625 2.226563,0 3.304688,-1.26562499 3.304688,-2.71874999 0,-1.3828125 -0.820313,-2.15625 -2.414063,-2.765625 -1.300781,-0.515625 -1.875,-0.9492188 -1.875,-1.828125 0,-0.6445313 0.492188,-1.4179688 1.78125,-1.4179688 0.855469,0 1.488281,0.28125 1.792969,0.4570313 l 0.328125,-0.9960938 c -0.410156,-0.234375 -1.113281,-0.46875 -2.085938,-0.46875 -1.828125,0 -3.046875,1.1015625 -3.046875,2.5664063 0,1.3359375 0.949219,2.1328125 2.496094,2.671875 1.265625,0.4921875 1.769531,0.9960937 1.769531,1.875 0,0.9609375 -0.726562,1.61718749 -1.96875,1.61718749 -0.84375,0 -1.640625,-0.28124999 -2.191406,-0.62109379 z m 7.875,0.609375 c 0.515625,0 0.832031,-0.375 0.832031,-0.87890625 0,-0.51562499 -0.328125,-0.87890629 -0.820313,-0.87890629 -0.492187,0 -0.84375,0.3632813 -0.84375,0.87890629 0,0.50390625 0.339844,0.87890625 0.832032,0.87890625 z m 0,0"
       style="fill:#000000;fill-opacity:1;fill-rule:nonzero;stroke:none"
       aria-label="N.S."
       transform="matrix(1.3333333,0,0,1.3333333,290.32747,874.19289)" />
    <text
       id="text181"
       xml:space="preserve"
       transform="matrix(1.3333333,0,0,1.3333333,313.97813,79.552895)"><tspan
         style="font-variant:normal;font-weight:normal;font-stretch:normal;font-size:14px;font-family:'DejaVu Sans';writing-mode:lr-tb;fill:#000000;fill-opacity:1;fill-rule:nonzero;stroke:none"
         x="0 8.8479996 22.483999 31.374001 36.862 45.150002 49.602001 58.492001 66.192001 76.972 87.444 97.019997 101.472 110.376 114.828 123.732 128.18401 137.07401 140.959 149.541 156.83501 170.47099 174.36301"
         y="0"
         sodipodi:role="line"
         id="tspan181">Empty pcDNA 3.1 plasmid</tspan></text>
    <path
       id="path182"
       d="M 1.1124491,3.28125e-5 H 6.5733866 V -1.0663734 H 2.3780741 v -8.7539063 h -1.265625 z m 0,0"
       style="fill:#000000;fill-opacity:1;fill-rule:nonzero;stroke:none"
       aria-label="L"
       transform="matrix(0,-1.3333333,1.3333333,0,52.2148,329.95983)" />
    <path
       id="path183"
       d="M 6.9731585,-7.0546547 H 5.684096 v 4.3242188 c 0,0.234375 -0.046875,0.46875 -0.1171875,0.65625 -0.234375,0.5742187 -0.8320312,1.17187496 -1.6875,1.17187496 -1.171875,0 -1.5703125,-0.90234376 -1.5703125,-2.24999996 V -7.0546547 H 1.0200335 v 4.125 c 0,2.47265626 1.3242188,3.09375001 2.4375,3.09375001 1.2539063,0 1.9921875,-0.75 2.3320313,-1.31250001 h 0.023437 L 5.8950335,3.28125e-5 H 7.0317523 C 6.9848773,-0.55074844 6.9731585,-1.1952797 6.9731585,-1.9218422 Z M 9.0971819,3.28125e-5 H 10.351088 V -4.2538734 c 0,-0.2226563 0.02344,-0.4453125 0.105469,-0.6328125 0.199219,-0.6328125 0.785156,-1.2773438 1.582031,-1.2773438 0.972656,0 1.476563,0.8085938 1.476563,1.9335938 V 3.28125e-5 h 1.253906 V -4.3593422 c 0,-0.234375 0.03516,-0.46875 0.09375,-0.6445312 0.222656,-0.6210938 0.796875,-1.1601563 1.523437,-1.1601563 1.03125,0 1.523438,0.8085938 1.523438,2.1679688 V 3.28125e-5 h 1.253906 V -4.1601234 c 0,-2.4492188 -1.382812,-3.0585938 -2.308594,-3.0585938 -0.679687,0 -1.136718,0.1757813 -1.558593,0.5039063 -0.292969,0.2109375 -0.574219,0.515625 -0.796875,0.9140625 h -0.02344 c -0.304687,-0.8320313 -1.03125,-1.4179688 -2.003906,-1.4179688 -1.160156,0 -1.816406,0.6328125 -2.214844,1.3007813 h -0.03516 l -0.05859,-1.1367188 H 9.0385882 c 0.046875,0.5859375 0.058594,1.1835938 0.058594,1.9101563 z m 13.4326171,0 V -7.0546547 H 21.252455 V 3.28125e-5 Z M 21.896987,-9.8437172 c -0.46875,0 -0.808594,0.3515625 -0.808594,0.8085938 0,0.4335937 0.316406,0.7851562 0.773437,0.7851562 0.515625,0 0.832032,-0.3515625 0.820313,-0.7851562 0,-0.4570313 -0.304688,-0.8085938 -0.785156,-0.8085938 z M 24.662612,3.28125e-5 h 1.277343 V -4.2421547 c 0,-0.2226562 0.03516,-0.4335937 0.09375,-0.5976562 0.210938,-0.7148438 0.867188,-1.3125 1.722657,-1.3125 1.207031,0 1.628906,0.9492187 1.628906,2.0859375 V 3.28125e-5 h 1.277344 V -4.2187172 c 0,-2.4140625 -1.511719,-3 -2.484375,-3 -1.171875,0 -1.992188,0.65625 -2.332032,1.3242188 h -0.03516 l -0.07031,-1.1601563 h -1.136719 c 0.04687,0.5859375 0.05859,1.1835938 0.05859,1.9101563 z M 38.423354,-3.2929359 c 0.01172,-0.1289063 0.03516,-0.3398438 0.03516,-0.5976563 0,-1.3007812 -0.609375,-3.328125 -2.90625,-3.328125 -2.0625,0 -3.316406,1.6757813 -3.316406,3.8085938 0,2.1328125 1.300781,3.55078121 3.46875,3.55078121 1.125,0 1.898437,-0.22265625 2.355469,-0.43359375 L 37.837416,-1.2069984 c -0.480468,0.1992187 -1.03125,0.36328121 -1.957031,0.36328121 -1.277344,0 -2.390625,-0.71484371 -2.414062,-2.44921871 z m -4.945313,-0.9257813 c 0.105469,-0.8789062 0.667969,-2.0742187 1.96875,-2.0742187 1.441407,0 1.792969,1.265625 1.78125,2.0742187 z m 6.084961,3.87890626 c 0.492188,0.29296875 1.207032,0.48046875 1.980469,0.48046875 1.675781,0 2.636719,-0.8671875 2.636719,-2.10937501 0,-1.0546875 -0.632813,-1.6640625 -1.851563,-2.1328125 -0.914062,-0.3398437 -1.347656,-0.609375 -1.347656,-1.1953125 0,-0.515625 0.433594,-0.9609375 1.183594,-0.9609375 0.65625,0 1.171875,0.234375 1.441406,0.4101563 l 0.328125,-0.9257813 c -0.398437,-0.234375 -1.019531,-0.4453125 -1.734375,-0.4453125 -1.523437,0 -2.4375,0.9375 -2.4375,2.0742188 0,0.84375 0.597656,1.546875 1.863281,1.9921875 0.949219,0.3515625 1.3125,0.6914062 1.3125,1.3007812 0,0.5859375 -0.433593,1.05468751 -1.371093,1.05468751 -0.644532,0 -1.3125,-0.26953121 -1.6875,-0.51562501 z m 11.06836,-0.87890626 c -0.363282,0.1523438 -0.84375,0.33984376 -1.570313,0.33984376 -1.394531,0 -2.449219,-0.99609376 -2.449219,-2.63671876 0,-1.4648437 0.878907,-2.6601562 2.496094,-2.6601562 0.691406,0 1.171875,0.1523437 1.488281,0.328125 l 0.28125,-0.984375 c -0.339843,-0.1757813 -1.019531,-0.375 -1.769531,-0.375 -2.308594,0 -3.796875,1.5820312 -3.796875,3.75 0,2.15625 1.382813,3.59765621 3.515625,3.59765621 0.949219,0 1.6875,-0.22265625 2.027344,-0.3984375 z m 7.30957,-2.0742187 c 0.01172,-0.1289063 0.03516,-0.3398438 0.03516,-0.5976563 0,-1.3007812 -0.609375,-3.328125 -2.90625,-3.328125 -2.0625,0 -3.316406,1.6757813 -3.316406,3.8085938 0,2.1328125 1.300781,3.55078121 3.46875,3.55078121 1.125,0 1.898437,-0.22265625 2.355469,-0.43359375 L 57.354994,-1.2069984 c -0.480468,0.1992187 -1.03125,0.36328121 -1.957031,0.36328121 -1.277344,0 -2.390625,-0.71484371 -2.414062,-2.44921871 z m -4.945313,-0.9257813 c 0.105469,-0.8789062 0.667969,-2.0742187 1.96875,-2.0742187 1.441407,0 1.792969,1.265625 1.78125,2.0742187 z M 59.569838,3.28125e-5 h 1.277344 V -4.2421547 c 0,-0.2226562 0.03516,-0.4335937 0.09375,-0.5976562 0.210937,-0.7148438 0.867187,-1.3125 1.722656,-1.3125 1.207031,0 1.628906,0.9492187 1.628906,2.0859375 V 3.28125e-5 h 1.277344 V -4.2187172 c 0,-2.4140625 -1.511719,-3 -2.484375,-3 -1.171875,0 -1.992187,0.65625 -2.332031,1.3242188 h -0.03516 l -0.07031,-1.1601563 h -1.136719 c 0.04687,0.5859375 0.05859,1.1835938 0.05859,1.9101563 z M 72.463393,-1.2187172 c -0.363281,0.1523438 -0.84375,0.33984376 -1.570313,0.33984376 -1.394531,0 -2.449218,-0.99609376 -2.449218,-2.63671876 0,-1.4648437 0.878906,-2.6601562 2.496093,-2.6601562 0.691407,0 1.171875,0.1523437 1.488282,0.328125 l 0.28125,-0.984375 c -0.339844,-0.1757813 -1.019532,-0.375 -1.769532,-0.375 -2.308593,0 -3.796875,1.5820312 -3.796875,3.75 0,2.15625 1.382813,3.59765621 3.515625,3.59765621 0.949219,0 1.6875,-0.22265625 2.027344,-0.3984375 z m 7.30957,-2.0742187 c 0.01172,-0.1289063 0.03516,-0.3398438 0.03516,-0.5976563 0,-1.3007812 -0.609375,-3.328125 -2.90625,-3.328125 -2.0625,0 -3.316406,1.6757813 -3.316406,3.8085938 0,2.1328125 1.300781,3.55078121 3.46875,3.55078121 1.125,0 1.898438,-0.22265625 2.355469,-0.43359375 l -0.22266,-0.91406246 c -0.480469,0.1992187 -1.03125,0.36328121 -1.957032,0.36328121 -1.277343,0 -2.390625,-0.71484371 -2.414062,-2.44921871 z m -4.945312,-0.9257813 c 0.105468,-0.8789062 0.667968,-2.0742187 1.96875,-2.0742187 1.441406,0 1.792968,1.265625 1.78125,2.0742187 z M 86.27394,-10.113248 c -0.925781,1.2187496 -1.898438,3.0820308 -1.910156,5.9531246 0,2.8476562 0.984375,4.71093746 1.910156,5.9296875 h 0.996094 c -1.03125,-1.46484379 -1.828125,-3.328125 -1.828125,-5.9296875 0,-2.6367188 0.773437,-4.5234375 1.828125,-5.9531246 z M 88.632338,3.28125e-5 h 1.253906 V -4.2538734 c 0,-0.2226563 0.02344,-0.4453125 0.105469,-0.6328125 0.199219,-0.6328125 0.785156,-1.2773438 1.582031,-1.2773438 0.972657,0 1.476563,0.8085938 1.476563,1.9335938 V 3.28125e-5 h 1.253906 V -4.3593422 c 0,-0.234375 0.03516,-0.46875 0.09375,-0.6445312 0.222656,-0.6210938 0.796875,-1.1601563 1.523438,-1.1601563 1.03125,0 1.523437,0.8085938 1.523437,2.1679688 V 3.28125e-5 h 1.253906 V -4.1601234 c 0,-2.4492188 -1.382812,-3.0585938 -2.308593,-3.0585938 -0.679688,0 -1.136719,0.1757813 -1.558594,0.5039063 -0.292969,0.2109375 -0.574219,0.515625 -0.796875,0.9140625 h -0.02344 c -0.304687,-0.8320313 -1.03125,-1.4179688 -2.003906,-1.4179688 -1.160156,0 -1.816406,0.6328125 -2.214844,1.3007813 h -0.03516 l -0.05859,-1.1367188 h -1.125 c 0.04687,0.5859375 0.05859,1.1835938 0.05859,1.9101563 z M 106.45949,-3.2929359 c 0.0117,-0.1289063 0.0352,-0.3398438 0.0352,-0.5976563 0,-1.3007812 -0.60937,-3.328125 -2.90625,-3.328125 -2.0625,0 -3.3164,1.6757813 -3.3164,3.8085938 0,2.1328125 1.30078,3.55078121 3.46875,3.55078121 1.125,0 1.89843,-0.22265625 2.35547,-0.43359375 L 105.8736,-1.2069984 c -0.48047,0.1992187 -1.03125,0.36328121 -1.95703,0.36328121 -1.27735,0 -2.39063,-0.71484371 -2.41406,-2.44921871 z m -4.94532,-0.9257813 c 0.10547,-0.8789062 0.66797,-2.0742187 1.96875,-2.0742187 1.44141,0 1.79297,1.265625 1.78125,2.0742187 z M 113.16554,3.28125e-5 C 113.07179,-0.48043594 113.04835,-1.0780922 113.04835,-1.6874672 v -2.6367187 c 0,-1.4179688 -0.52734,-2.8945313 -2.68359,-2.8945313 -0.89062,0 -1.73437,0.2460938 -2.32031,0.6328125 l 0.29297,0.84375 c 0.49218,-0.328125 1.18359,-0.5273437 1.83984,-0.5273437 1.44141,0 1.60547,1.0546875 1.60547,1.6289062 v 0.1523438 c -2.73047,-0.011719 -4.24219,0.9140625 -4.24219,2.625 0,1.01953121 0.72656,2.02734371 2.15625,2.02734371 0.9961,0 1.75781,-0.50390625 2.15625,-1.0546875 h 0.0352 L 111.99367,3.28125e-5 Z M 111.80617,-2.3788734 c 0,0.1289062 -0.0234,0.28125 -0.0703,0.4101562 -0.21093,0.5976563 -0.78515,1.18359376 -1.71093,1.18359376 -0.65625,0 -1.20703,-0.39843746 -1.20703,-1.23046876 0,-1.3710937 1.59375,-1.6171875 2.98828,-1.5820312 z m 3.31054,2.3789062125 h 1.27735 V -4.2421547 c 0,-0.2226562 0.0352,-0.4335937 0.0937,-0.5976562 0.21093,-0.7148438 0.86718,-1.3125 1.72265,-1.3125 1.20703,0 1.62891,0.9492187 1.62891,2.0859375 V 3.28125e-5 h 1.27734 V -4.2187172 c 0,-2.4140625 -1.51172,-3 -2.48437,-3 -1.17188,0 -1.99219,0.65625 -2.33203,1.3242188 h -0.0352 l -0.0703,-1.1601563 h -1.13672 c 0.0469,0.5859375 0.0586,1.1835938 0.0586,1.9101563 z M 123.41652,1.7695641 c 0.9375,-1.24218754 1.91015,-3.09375 1.91015,-5.953125 0,-2.8710938 -0.97265,-4.734375 -1.91015,-5.9296871 h -0.98438 c 1.04297,1.4414058 1.83985,3.3046871 1.83985,5.9179683 0,2.625 -0.8086,4.51171876 -1.83985,5.9648438 z M -355.85692,3.28125e-5 h 5.46094 V -1.0663734 h -4.19531 v -8.7539063 h -1.26563 z M -343.33836,-7.0546547 h -1.28907 v 4.3242188 c 0,0.234375 -0.0469,0.46875 -0.11718,0.65625 -0.23438,0.5742187 -0.83204,1.17187496 -1.6875,1.17187496 -1.17188,0 -1.57032,-0.90234376 -1.57032,-2.24999996 v -3.9023438 h -1.28906 v 4.125 c 0,2.47265626 1.32422,3.09375001 2.4375,3.09375001 1.25391,0 1.99219,-0.75 2.33203,-1.31250001 h 0.0234 l 0.082,1.1484375125 h 1.13672 c -0.0469,-0.5507812525 -0.0586,-1.1953125125 -0.0586,-1.9218750125 z m 2.12402,7.0546875125 h 1.2539 V -4.2538734 c 0,-0.2226563 0.0234,-0.4453125 0.10547,-0.6328125 0.19922,-0.6328125 0.78516,-1.2773438 1.58203,-1.2773438 0.97266,0 1.47657,0.8085938 1.47657,1.9335938 V 3.28125e-5 h 1.2539 V -4.3593422 c 0,-0.234375 0.0352,-0.46875 0.0937,-0.6445312 0.22266,-0.6210938 0.79688,-1.1601563 1.52344,-1.1601563 1.03125,0 1.52344,0.8085938 1.52344,2.1679688 V 3.28125e-5 h 1.2539 V -4.1601234 c 0,-2.4492188 -1.38281,-3.0585938 -2.30859,-3.0585938 -0.67969,0 -1.13672,0.1757813 -1.55859,0.5039063 -0.29297,0.2109375 -0.57422,0.515625 -0.79688,0.9140625 h -0.0234 c -0.30468,-0.8320313 -1.03125,-1.4179688 -2.0039,-1.4179688 -1.16016,0 -1.81641,0.6328125 -2.21485,1.3007813 h -0.0351 l -0.0586,-1.1367188 h -1.125 c 0.0469,0.5859375 0.0586,1.1835938 0.0586,1.9101563 z m 13.43555,0 V -7.0546547 h -1.27735 V 3.28125e-5 Z M -328.41161,-9.8437172 c -0.46875,0 -0.80859,0.3515625 -0.80859,0.8085938 0,0.4335937 0.31641,0.7851562 0.77344,0.7851562 0.51562,0 0.83203,-0.3515625 0.82031,-0.7851562 0,-0.4570313 -0.30469,-0.8085938 -0.78516,-0.8085938 z m 2.76563,9.8437500125 h 1.27734 V -4.2421547 c 0,-0.2226562 0.0352,-0.4335937 0.0937,-0.5976562 0.21094,-0.7148438 0.86719,-1.3125 1.72266,-1.3125 1.20703,0 1.6289,0.9492187 1.6289,2.0859375 V 3.28125e-5 h 1.27735 V -4.2187172 c 0,-2.4140625 -1.51172,-3 -2.48438,-3 -1.17187,0 -1.99218,0.65625 -2.33203,1.3242188 h -0.0351 l -0.0703,-1.1601563 h -1.13672 c 0.0469,0.5859375 0.0586,1.1835938 0.0586,1.9101563 z M -311.88524,-3.2929359 c 0.0117,-0.1289063 0.0352,-0.3398438 0.0352,-0.5976563 0,-1.3007812 -0.60938,-3.328125 -2.90625,-3.328125 -2.0625,0 -3.31641,1.6757813 -3.31641,3.8085938 0,2.1328125 1.30078,3.55078121 3.46875,3.55078121 1.125,0 1.89844,-0.22265625 2.35547,-0.43359375 l -0.22266,-0.91406246 c -0.48047,0.1992187 -1.03125,0.36328121 -1.95703,0.36328121 -1.27734,0 -2.39062,-0.71484371 -2.41406,-2.44921871 z m -4.94531,-0.9257813 c 0.10547,-0.8789062 0.66797,-2.0742187 1.96875,-2.0742187 1.4414,0 1.79297,1.265625 1.78125,2.0742187 z m 6.08203,3.87890626 c 0.49219,0.29296875 1.20703,0.48046875 1.98047,0.48046875 1.67578,0 2.63672,-0.8671875 2.63672,-2.10937501 0,-1.0546875 -0.63282,-1.6640625 -1.85157,-2.1328125 -0.91406,-0.3398437 -1.34765,-0.609375 -1.34765,-1.1953125 0,-0.515625 0.43359,-0.9609375 1.18359,-0.9609375 0.65625,0 1.17188,0.234375 1.44141,0.4101563 l 0.32812,-0.9257813 c -0.39843,-0.234375 -1.01953,-0.4453125 -1.73437,-0.4453125 -1.52344,0 -2.4375,0.9375 -2.4375,2.0742188 0,0.84375 0.59765,1.546875 1.86328,1.9921875 0.94922,0.3515625 1.3125,0.6914062 1.3125,1.3007812 0,0.5859375 -0.43359,1.05468751 -1.37109,1.05468751 -0.64454,0 -1.3125,-0.26953121 -1.6875,-0.51562501 z m 11.06836,-0.87890626 c -0.36328,0.1523438 -0.84375,0.33984376 -1.57031,0.33984376 -1.39454,0 -2.44922,-0.99609376 -2.44922,-2.63671876 0,-1.4648437 0.8789,-2.6601562 2.49609,-2.6601562 0.69141,0 1.17188,0.1523437 1.48828,0.328125 l 0.28125,-0.984375 c -0.33984,-0.1757813 -1.01953,-0.375 -1.76953,-0.375 -2.30859,0 -3.79687,1.5820312 -3.79687,3.75 0,2.15625 1.38281,3.59765621 3.51562,3.59765621 0.94922,0 1.6875,-0.22265625 2.02734,-0.3984375 z m 7.30957,-2.0742187 c 0.0117,-0.1289063 0.0351,-0.3398438 0.0351,-0.5976563 0,-1.3007812 -0.60937,-3.328125 -2.90625,-3.328125 -2.0625,0 -3.3164,1.6757813 -3.3164,3.8085938 0,2.1328125 1.30078,3.55078121 3.46875,3.55078121 1.125,0 1.89844,-0.22265625 2.35547,-0.43359375 l -0.22266,-0.91406246 c -0.48047,0.1992187 -1.03125,0.36328121 -1.95703,0.36328121 -1.27734,0 -2.39063,-0.71484371 -2.41406,-2.44921871 z m -4.94531,-0.9257813 c 0.10546,-0.8789062 0.66796,-2.0742187 1.96875,-2.0742187 1.4414,0 1.79296,1.265625 1.78125,2.0742187 z m 6.57714,4.2187500125 h 1.27735 V -4.2421547 c 0,-0.2226562 0.0351,-0.4335937 0.0937,-0.5976562 0.21094,-0.7148438 0.86719,-1.3125 1.72265,-1.3125 1.20704,0 1.62891,0.9492187 1.62891,2.0859375 V 3.28125e-5 h 1.27734 V -4.2187172 c 0,-2.4140625 -1.51171,-3 -2.48437,-3 -1.17188,0 -1.99219,0.65625 -2.33203,1.3242188 h -0.0352 l -0.0703,-1.1601563 h -1.13672 c 0.0469,0.5859375 0.0586,1.1835938 0.0586,1.9101563 z M -277.8452,-1.2187172 c -0.36328,0.1523438 -0.84375,0.33984376 -1.57031,0.33984376 -1.39453,0 -2.44922,-0.99609376 -2.44922,-2.63671876 0,-1.4648437 0.8789,-2.6601562 2.49609,-2.6601562 0.69141,0 1.17188,0.1523437 1.48828,0.328125 l 0.28125,-0.984375 c -0.33984,-0.1757813 -1.01953,-0.375 -1.76953,-0.375 -2.30859,0 -3.79687,1.5820312 -3.79687,3.75 0,2.15625 1.38281,3.59765621 3.51562,3.59765621 0.94922,0 1.6875,-0.22265625 2.02735,-0.3984375 z m 7.30957,-2.0742187 c 0.0117,-0.1289063 0.0352,-0.3398438 0.0352,-0.5976563 0,-1.3007812 -0.60938,-3.328125 -2.90625,-3.328125 -2.0625,0 -3.31641,1.6757813 -3.31641,3.8085938 0,2.1328125 1.30078,3.55078121 3.46875,3.55078121 1.125,0 1.89844,-0.22265625 2.35547,-0.43359375 l -0.22266,-0.91406246 c -0.48047,0.1992187 -1.03125,0.36328121 -1.95703,0.36328121 -1.27734,0 -2.39062,-0.71484371 -2.41406,-2.44921871 z m -4.94531,-0.9257813 c 0.10547,-0.8789062 0.66797,-2.0742187 1.96875,-2.0742187 1.4414,0 1.79297,1.265625 1.78125,2.0742187 z m 11.44629,-5.8945308 c -0.92579,1.2187496 -1.89844,3.0820308 -1.91016,5.9531246 0,2.8476562 0.98437,4.71093746 1.91016,5.9296875 h 0.99609 c -1.03125,-1.46484379 -1.82813,-3.328125 -1.82813,-5.9296875 0,-2.6367188 0.77344,-4.5234375 1.82813,-5.9531246 z m 2.35839,10.1132808125 h 1.25391 V -4.2538734 c 0,-0.2226563 0.0234,-0.4453125 0.10547,-0.6328125 0.19922,-0.6328125 0.78516,-1.2773438 1.58203,-1.2773438 0.97266,0 1.47656,0.8085938 1.47656,1.9335938 V 3.28125e-5 h 1.25391 V -4.3593422 c 0,-0.234375 0.0352,-0.46875 0.0938,-0.6445312 0.22266,-0.6210938 0.79687,-1.1601563 1.52344,-1.1601563 1.03125,0 1.52343,0.8085938 1.52343,2.1679688 V 3.28125e-5 h 1.25391 V -4.1601234 c 0,-2.4492188 -1.38281,-3.0585938 -2.30859,-3.0585938 -0.67969,0 -1.13672,0.1757813 -1.5586,0.5039063 -0.29297,0.2109375 -0.57422,0.515625 -0.79687,0.9140625 h -0.0234 c -0.30469,-0.8320313 -1.03125,-1.4179688 -2.00391,-1.4179688 -1.16015,0 -1.8164,0.6328125 -2.21484,1.3007813 h -0.0352 l -0.0586,-1.1367188 h -1.125 c 0.0469,0.5859375 0.0586,1.1835938 0.0586,1.9101563 z M -243.84911,-3.2929359 c 0.0117,-0.1289063 0.0352,-0.3398438 0.0352,-0.5976563 0,-1.3007812 -0.60938,-3.328125 -2.90625,-3.328125 -2.0625,0 -3.31641,1.6757813 -3.31641,3.8085938 0,2.1328125 1.30078,3.55078121 3.46875,3.55078121 1.125,0 1.89844,-0.22265625 2.35547,-0.43359375 L -244.435,-1.2069984 c -0.48047,0.1992187 -1.03125,0.36328121 -1.95704,0.36328121 -1.27734,0 -2.39062,-0.71484371 -2.41406,-2.44921871 z m -4.94531,-0.9257813 c 0.10547,-0.8789062 0.66797,-2.0742187 1.96875,-2.0742187 1.44141,0 1.79297,1.265625 1.78125,2.0742187 z M -237.14598,3.28125e-5 C -237.23973,-0.48043594 -237.26317,-1.0780922 -237.26317,-1.6874672 v -2.6367187 c 0,-1.4179688 -0.52734,-2.8945313 -2.68359,-2.8945313 -0.89063,0 -1.73438,0.2460938 -2.32032,0.6328125 l 0.29297,0.84375 c 0.49219,-0.328125 1.1836,-0.5273437 1.83985,-0.5273437 1.4414,0 1.60547,1.0546875 1.60547,1.6289062 v 0.1523438 c -2.73047,-0.011719 -4.24219,0.9140625 -4.24219,2.625 0,1.01953121 0.72656,2.02734371 2.15625,2.02734371 0.99609,0 1.75781,-0.50390625 2.15625,-1.0546875 h 0.0352 l 0.10547,0.8906250025 z M -238.50536,-2.3788734 c 0,0.1289062 -0.0234,0.28125 -0.0703,0.4101562 -0.21094,0.5976563 -0.78516,1.18359376 -1.71094,1.18359376 -0.65625,0 -1.20703,-0.39843746 -1.20703,-1.23046876 0,-1.3710937 1.59375,-1.6171875 2.98828,-1.5820312 z m 3.31055,2.3789062125 h 1.27734 V -4.2421547 c 0,-0.2226562 0.0352,-0.4335937 0.0937,-0.5976562 0.21094,-0.7148438 0.86719,-1.3125 1.72266,-1.3125 1.20703,0 1.62891,0.9492187 1.62891,2.0859375 V 3.28125e-5 h 1.27734 V -4.2187172 c 0,-2.4140625 -1.51172,-3 -2.48438,-3 -1.17187,0 -1.99218,0.65625 -2.33203,1.3242188 h -0.0351 l -0.0703,-1.1601563 h -1.13671 c 0.0469,0.5859375 0.0586,1.1835938 0.0586,1.9101563 z m 8.2998,1.7695312875 c 0.9375,-1.24218754 1.91016,-3.09375 1.91016,-5.953125 0,-2.8710938 -0.97266,-4.734375 -1.91016,-5.9296871 h -0.98437 c 1.04297,1.4414058 1.83984,3.3046871 1.83984,5.9179683 0,2.625 -0.80859,4.51171876 -1.83984,5.9648438 z m 0,0"
       style="fill:#000000;fill-opacity:1;fill-rule:nonzero;stroke:none"
       aria-label="uminesc&#10;enc&#10;e (mean)&#10;L&#10;uminesc&#10;enc&#10;e (mean)"
       transform="matrix(0,-1.3333333,1.3333333,0,52.2148,321.07879)" />
    <path
       id="path184"
       d="m 111.039,440.14 h 413.648 v 15.97 H 111.039 Z"
       style="fill:#d9d9d9;fill-opacity:1;fill-rule:nonzero;stroke:none"
       transform="matrix(1.3333333,0,0,-1.3333333,0,1122.5197)" />
    <text
       id="text184"
       xml:space="preserve"
       transform="matrix(1.3333333,0,0,1.3333333,313.20307,531.11476)"><tspan
         style="font-variant:normal;font-weight:normal;font-stretch:normal;font-size:14px;font-family:'DejaVu Sans';writing-mode:lr-tb;fill:#000000;fill-opacity:1;fill-rule:nonzero;stroke:none"
         x="0 8.8479996 22.483999 31.374001 36.862 45.150002 49.602001 58.492001 66.192001 76.972 87.444 97.019997 101.472 110.376 114.828 123.732 128.18401 137.07401 140.966 149.548 156.842 170.478 174.37"
         y="0"
         sodipodi:role="line"
         id="tspan184">Empty pcDNA 3.1 plasmid</tspan></text>
  </g>
</svg>
